<svg width="13" height="12" viewBox="0 0 13 12" fill="none" xmlns="http://www.w3.org/2000/svg">
<g clip-path="url(#clip0_1784_7415)">
<path d="M6.51609 9.5C6.71315 9.50034 6.90832 9.46172 7.0904 9.38639C7.27249 9.31105 7.43789 9.20047 7.57709 9.061L9.53659 7.1L8.82959 6.395L7.01309 8.212L7.00009 0H6.00009L6.01309 8.204L4.20309 6.394L3.49609 7.1L5.45559 9.0595C5.59464 9.19916 5.7599 9.30996 5.94189 9.38556C6.12389 9.46115 6.31902 9.50005 6.51609 9.5Z" fill="black"/>
<path d="M11.5 8V10.5C11.5 10.6326 11.4473 10.7598 11.3536 10.8536C11.2598 10.9473 11.1326 11 11 11H2C1.86739 11 1.74021 10.9473 1.64645 10.8536C1.55268 10.7598 1.5 10.6326 1.5 10.5V8H0.5V10.5C0.5 10.8978 0.658035 11.2794 0.93934 11.5607C1.22064 11.842 1.60218 12 2 12H11C11.3978 12 11.7794 11.842 12.0607 11.5607C12.342 11.2794 12.5 10.8978 12.5 10.5V8H11.5Z" fill="black"/>
</g>
<defs>
<clipPath id="clip0_1784_7415">
<rect width="12" height="12" fill="white" transform="translate(0.5)"/>
</clipPath>
</defs>
</svg>
