<svg width="20" height="20" viewBox="0 0 20 20" fill="none" xmlns="http://www.w3.org/2000/svg">
<g clip-path="url(#clip0_1559_5037)">
<path d="M16.525 4.54312L17.7213 5.73862C17.8261 5.84287 17.9595 5.9138 18.1046 5.94248C18.2496 5.97116 18.3999 5.95631 18.5366 5.8998C18.6733 5.8433 18.7902 5.74765 18.8726 5.62489C18.9551 5.50214 18.9994 5.35774 19 5.20987V1.75986C19 1.56095 18.921 1.37019 18.7803 1.22953C18.6397 1.08888 18.4489 1.00986 18.25 1.00986H14.7948C14.6468 1.01019 14.5022 1.0543 14.3792 1.13664C14.2562 1.21898 14.1603 1.33587 14.1036 1.47258C14.0469 1.6093 14.0319 1.75974 14.0606 1.90495C14.0892 2.05016 14.1602 2.18365 14.2645 2.28861L15.4645 3.48486L10 8.94037L4.53176 3.47511L5.73551 2.27511C5.84062 2.17027 5.91225 2.03658 5.94133 1.89098C5.9704 1.74539 5.95561 1.59445 5.89883 1.45727C5.84204 1.32009 5.74582 1.20285 5.62236 1.1204C5.49889 1.03795 5.35372 0.993998 5.20526 0.994115L1.75001 0.992615C1.5511 0.992615 1.36033 1.07163 1.21968 1.21228C1.07903 1.35294 1.00001 1.5437 1.00001 1.74261V5.19262C0.999294 5.34143 1.04287 5.48709 1.12518 5.61107C1.2075 5.73504 1.32483 5.83173 1.46226 5.88882C1.59969 5.94592 1.75099 5.96084 1.89692 5.93169C2.04285 5.90253 2.17681 5.83063 2.28176 5.72512L3.47501 4.53562L8.94026 10.0001L3.47876 15.4571L2.27876 14.2609C2.17384 14.1566 2.04041 14.0856 1.89527 14.057C1.75013 14.0283 1.59976 14.0432 1.46307 14.0998C1.32639 14.1564 1.20949 14.2522 1.1271 14.3751C1.0447 14.4979 1.00048 14.6424 1.00001 14.7904V18.2404C1.00001 18.4393 1.07903 18.63 1.21968 18.7707C1.36033 18.9113 1.5511 18.9904 1.75001 18.9904H5.20526C5.3525 18.9893 5.49617 18.945 5.61837 18.8628C5.74057 18.7806 5.83588 18.6643 5.89242 18.5284C5.94896 18.3924 5.96423 18.2428 5.93633 18.0983C5.90843 17.9537 5.83858 17.8205 5.73551 17.7154L4.53926 16.5169L10 11.0599L15.4615 16.5161L14.2615 17.7161C14.1584 17.8213 14.0886 17.9544 14.0607 18.099C14.0328 18.2436 14.0481 18.3932 14.1046 18.5291C14.1611 18.6651 14.2564 18.7814 14.3786 18.8635C14.5008 18.9457 14.6445 18.9901 14.7918 18.9911H18.2455C18.4444 18.9911 18.6352 18.9121 18.7758 18.7714C18.9165 18.6308 18.9955 18.44 18.9955 18.2411V14.7911C18.9955 14.6428 18.9515 14.4978 18.8691 14.3745C18.7866 14.2512 18.6695 14.1551 18.5325 14.0984C18.3955 14.0416 18.2447 14.0268 18.0992 14.0557C17.9538 14.0846 17.8201 14.156 17.7153 14.2609L16.525 15.4564L11.0605 10.0001L16.525 4.54312Z" fill="white"/>
</g>
<defs>
<clipPath id="clip0_1559_5037">
<rect width="18" height="18" fill="white" transform="translate(1 1)"/>
</clipPath>
</defs>
</svg>
