<svg width="20" height="20" viewBox="0 0 20 20" fill="none" xmlns="http://www.w3.org/2000/svg">
<rect width="20" height="20" rx="10" fill="white"/>
<path fill-rule="evenodd" clip-rule="evenodd" d="M7.00679 3.371C7.67327 3.34031 7.88577 3.3335 9.5835 3.3335C11.2812 3.3335 11.4937 3.34088 12.1596 3.371C12.8255 3.40111 13.2801 3.50736 13.6778 3.66134C14.0943 3.81872 14.4721 4.06475 14.7846 4.38293C15.1028 4.69486 15.3483 5.07213 15.5051 5.48918C15.6596 5.88691 15.7653 6.34145 15.796 7.00622C15.8267 7.67384 15.8335 7.88634 15.8335 9.5835C15.8335 11.2812 15.8261 11.4937 15.796 12.1602C15.7659 12.825 15.6596 13.2795 15.5051 13.6772C15.3483 14.0943 15.1024 14.4722 14.7846 14.7846C14.4721 15.1028 14.0943 15.3483 13.6778 15.5051C13.2801 15.6596 12.8255 15.7653 12.1608 15.796C11.4937 15.8267 11.2812 15.8335 9.5835 15.8335C7.88577 15.8335 7.67327 15.8261 7.00679 15.796C6.34202 15.7659 5.88747 15.6596 5.48975 15.5051C5.07266 15.3482 4.69476 15.1024 4.38236 14.7846C4.06439 14.4725 3.81833 14.0948 3.66134 13.6778C3.50736 13.2801 3.40168 12.8255 3.371 12.1608C3.34031 11.4932 3.3335 11.2807 3.3335 9.5835C3.3335 7.88577 3.34088 7.67327 3.371 7.00736C3.40111 6.34145 3.50736 5.88691 3.66134 5.48918C3.81857 5.07218 4.06481 4.69447 4.38293 4.38236C4.69488 4.06446 5.0724 3.81841 5.48918 3.66134C5.88691 3.50736 6.34202 3.40168 7.00679 3.371ZM12.1091 4.496C11.45 4.46588 11.2522 4.45963 9.5835 4.45963C7.91475 4.45963 7.71702 4.46588 7.05793 4.496C6.44827 4.52384 6.11759 4.62554 5.89713 4.71134C5.60566 4.82497 5.39713 4.95963 5.17838 5.17838C4.97102 5.38012 4.81144 5.6257 4.71134 5.89713C4.62554 6.11759 4.52384 6.44827 4.496 7.05793C4.46588 7.71702 4.45963 7.91475 4.45963 9.5835C4.45963 11.2522 4.46588 11.45 4.496 12.1091C4.52384 12.7187 4.62554 13.0494 4.71134 13.2699C4.81134 13.5409 4.971 13.7869 5.17838 13.9886C5.38009 14.196 5.62611 14.3557 5.89713 14.4557C6.11759 14.5415 6.44827 14.6432 7.05793 14.671C7.71702 14.7011 7.91418 14.7074 9.5835 14.7074C11.2528 14.7074 11.45 14.7011 12.1091 14.671C12.7187 14.6432 13.0494 14.5415 13.2699 14.4557C13.5613 14.342 13.7699 14.2074 13.9886 13.9886C14.196 13.7869 14.3557 13.5409 14.4557 13.2699C14.5415 13.0494 14.6432 12.7187 14.671 12.1091C14.7011 11.45 14.7074 11.2522 14.7074 9.5835C14.7074 7.91475 14.7011 7.71702 14.671 7.05793C14.6432 6.44827 14.5415 6.11759 14.4557 5.89713C14.342 5.60566 14.2074 5.39713 13.9886 5.17838C13.7869 4.97104 13.5413 4.81146 13.2699 4.71134C13.0494 4.62554 12.7187 4.52384 12.1091 4.496ZM8.7852 11.5102C9.23103 11.6958 9.72746 11.7208 10.1897 11.5811C10.652 11.4413 11.0513 11.1454 11.3196 10.7439C11.5879 10.3423 11.7085 9.86013 11.6608 9.37958C11.6131 8.89903 11.4 8.44996 11.0579 8.10906C10.8399 7.89115 10.5762 7.7243 10.286 7.62051C9.99569 7.51672 9.68601 7.47859 9.37923 7.50885C9.07245 7.5391 8.7762 7.63701 8.51179 7.7955C8.24739 7.954 8.02142 8.16915 7.85015 8.42546C7.67887 8.68177 7.56656 8.97287 7.52129 9.27779C7.47602 9.58272 7.49892 9.89389 7.58835 10.1889C7.67777 10.4839 7.8315 10.7554 8.03845 10.9839C8.24541 11.2124 8.50044 11.3921 8.7852 11.5102ZM7.31191 7.31191C7.61021 7.0136 7.96436 6.77696 8.35412 6.61552C8.74388 6.45408 9.16162 6.37098 9.5835 6.37098C10.0054 6.37098 10.4231 6.45408 10.8129 6.61552C11.2026 6.77696 11.5568 7.0136 11.8551 7.31191C12.1534 7.61021 12.39 7.96436 12.5515 8.35412C12.7129 8.74388 12.796 9.16162 12.796 9.5835C12.796 10.0054 12.7129 10.4231 12.5515 10.8129C12.39 11.2026 12.1534 11.5568 11.8551 11.8551C11.2526 12.4576 10.4355 12.796 9.5835 12.796C8.73148 12.796 7.91437 12.4576 7.31191 11.8551C6.70944 11.2526 6.37098 10.4355 6.37098 9.5835C6.37098 8.73148 6.70944 7.91437 7.31191 7.31191ZM13.5085 6.84941C13.5824 6.77967 13.6416 6.69581 13.6825 6.6028C13.7235 6.50978 13.7453 6.4095 13.7468 6.30789C13.7483 6.20628 13.7294 6.1054 13.6912 6.01123C13.653 5.91706 13.5962 5.83151 13.5244 5.75965C13.4525 5.6878 13.367 5.63109 13.2728 5.59288C13.1786 5.55468 13.0778 5.53576 12.9761 5.53724C12.8745 5.53872 12.7743 5.56057 12.6812 5.60151C12.5882 5.64244 12.5044 5.70162 12.4346 5.77554C12.299 5.91931 12.2248 6.11027 12.2276 6.30789C12.2305 6.50551 12.3103 6.69422 12.4501 6.83398C12.5898 6.97373 12.7785 7.05351 12.9761 7.05639C13.1738 7.05927 13.3647 6.98502 13.5085 6.84941Z" fill="black"/>
</svg>
