<svg width="24" height="24" viewBox="0 0 24 24" fill="none" xmlns="http://www.w3.org/2000/svg">
<g clip-path="url(#clip0_1559_5558)">
<path d="M11.3319 6.21873C11.1977 5.72515 10.9049 5.28942 10.4985 4.97877C10.0922 4.66812 9.59492 4.49982 9.08344 4.49982C8.57195 4.49982 8.07467 4.66812 7.66833 4.97877C7.26198 5.28942 6.96915 5.72515 6.835 6.21873H4.5V7.46873H6.835C6.96915 7.96231 7.26198 8.39804 7.66833 8.70868C8.07467 9.01933 8.57195 9.18764 9.08344 9.18764C9.59492 9.18764 10.0922 9.01933 10.4985 8.70868C10.9049 8.39804 11.1977 7.96231 11.3319 7.46873H19.5V6.21873H11.3319ZM9.08312 7.93748C8.8668 7.93748 8.65534 7.87333 8.47547 7.75315C8.2956 7.63296 8.15541 7.46214 8.07263 7.26229C7.98985 7.06243 7.96819 6.84251 8.01039 6.63035C8.05259 6.41818 8.15676 6.22329 8.30973 6.07033C8.46269 5.91737 8.65758 5.8132 8.86974 5.77099C9.08191 5.72879 9.30183 5.75045 9.50168 5.83323C9.70154 5.91602 9.87236 6.05621 9.99254 6.23607C10.1127 6.41594 10.1769 6.6274 10.1769 6.84373C10.1764 7.13366 10.061 7.41157 9.85597 7.61658C9.65096 7.82159 9.37305 7.93698 9.08312 7.93748Z" fill="white"/>
<path d="M14.9169 9.65625C14.4059 9.65808 13.9096 9.82706 13.5037 10.1374C13.0977 10.4477 12.8045 10.8824 12.6687 11.375H4.5V12.625H12.6687C12.8027 13.1187 13.0954 13.5546 13.5017 13.8654C13.908 14.1761 14.4053 14.3445 14.9169 14.3445C15.4284 14.3445 15.9257 14.1761 16.332 13.8654C16.7384 13.5546 17.0311 13.1187 17.165 12.625H19.5V11.375H17.165C17.0292 10.8824 16.736 10.4477 16.3301 10.1374C15.9242 9.82706 15.4278 9.65808 14.9169 9.65625ZM14.9169 13.0938C14.7006 13.0938 14.4891 13.0296 14.3092 12.9094C14.1294 12.7892 13.9892 12.6184 13.9064 12.4186C13.8236 12.2187 13.8019 11.9988 13.8441 11.7866C13.8863 11.5745 13.9905 11.3796 14.1435 11.2266C14.2964 11.0736 14.4913 10.9695 14.7035 10.9273C14.9157 10.8851 15.1356 10.9067 15.3354 10.9895C15.5353 11.0723 15.7061 11.2125 15.8263 11.3923C15.9465 11.5722 16.0106 11.7837 16.0106 12C16.0103 12.29 15.895 12.568 15.6899 12.773C15.4849 12.9781 15.2069 13.0934 14.9169 13.0938Z" fill="white"/>
<path d="M9.08312 14.8125C8.57184 14.8139 8.07508 14.9827 7.66877 15.2931C7.26247 15.6035 6.96897 16.0383 6.83312 16.5312H4.5V17.7812H6.835C6.96915 18.2748 7.26198 18.7106 7.66833 19.0212C8.07467 19.3318 8.57195 19.5002 9.08344 19.5002C9.59492 19.5002 10.0922 19.3318 10.4985 19.0212C10.9049 18.7106 11.1977 18.2748 11.3319 17.7812H19.5V16.5312H11.3319C11.1961 16.0385 10.9028 15.6038 10.4967 15.2935C10.0907 14.9831 9.5942 14.8142 9.08312 14.8125ZM9.08312 18.25C8.8668 18.25 8.65534 18.1858 8.47547 18.0657C8.2956 17.9455 8.15541 17.7747 8.07263 17.5748C7.98985 17.375 7.96819 17.155 8.01039 16.9429C8.05259 16.7307 8.15676 16.5358 8.30973 16.3829C8.46269 16.2299 8.65758 16.1257 8.86974 16.0835C9.08191 16.0413 9.30183 16.063 9.50168 16.1458C9.70154 16.2285 9.87236 16.3687 9.99254 16.5486C10.1127 16.7285 10.1769 16.9399 10.1769 17.1562C10.1764 17.4462 10.061 17.7241 9.85597 17.9291C9.65096 18.1341 9.37305 18.2495 9.08312 18.25Z" fill="white"/>
</g>
<defs>
<clipPath id="clip0_1559_5558">
<rect width="15" height="15" fill="white" transform="translate(4.5 4.5)"/>
</clipPath>
</defs>
</svg>
