<svg width="24" height="25" viewBox="0 0 24 25" fill="none" xmlns="http://www.w3.org/2000/svg">
<g clip-path="url(#clip0_1306_394)">
<path d="M12.0003 15.4988C13.6566 15.4988 14.9992 14.1561 14.9992 12.4999C14.9992 10.8437 13.6566 9.50104 12.0003 9.50104C10.3441 9.50104 9.00146 10.8437 9.00146 12.4999C9.00146 14.1561 10.3441 15.4988 12.0003 15.4988Z" fill="white"/>
<path d="M20.4501 10.5649C19.2873 8.67111 16.6423 5.49377 12 5.49377C7.35771 5.49377 4.71269 8.67111 3.54987 10.5649C2.81671 11.7507 2.81671 13.2491 3.54987 14.435C4.71269 16.3288 7.35771 19.5061 12 19.5061C16.6423 19.5061 19.2873 16.3288 20.4501 14.435C21.1833 13.2491 21.1833 11.7507 20.4501 10.5649ZM12 16.9983C9.51564 16.9983 7.50165 14.9843 7.50165 12.4999C7.50165 10.0156 9.51564 8.00159 12 8.00159C14.4843 8.00159 16.4983 10.0156 16.4983 12.4999C16.4958 14.9832 14.4833 16.9958 12 16.9983Z" fill="white"/>
</g>
<defs>
<clipPath id="clip0_1306_394">
<rect width="18" height="18" fill="white" transform="translate(3 3.5)"/>
</clipPath>
</defs>
</svg>
