<svg width="24" height="24" viewBox="0 0 24 24" fill="none" xmlns="http://www.w3.org/2000/svg">
<path fill-rule="evenodd" clip-rule="evenodd" d="M18.0094 7.09644C18.1135 7.15941 18.1984 7.24961 18.255 7.35731C18.3115 7.46502 18.3374 7.58617 18.3299 7.70758C18.3224 7.82899 18.2817 7.94602 18.2123 8.04593L12.2127 16.712C12.1516 16.8008 12.0698 16.8734 11.9743 16.9236C11.8788 16.9738 11.7726 17 11.6648 17C11.5569 17 11.4507 16.9738 11.3553 16.9236C11.2598 16.8734 11.178 16.8008 11.1168 16.712L5.11723 8.04593C5.04852 7.94581 5.0084 7.82885 5.00118 7.70764C4.99396 7.58642 5.01993 7.46553 5.07628 7.35797C5.13263 7.25041 5.21724 7.16024 5.32101 7.09717C5.42477 7.0341 5.54377 7.0005 5.6652 7H17.6644C17.786 7.00013 17.9053 7.03347 18.0094 7.09644Z" fill="white"/>
</svg>
