<svg width="20" height="20" viewBox="0 0 20 20" fill="none" xmlns="http://www.w3.org/2000/svg">
<g clip-path="url(#clip0_1559_5046)">
<path d="M10.75 2.5V7.75H2.5V3.25C2.5 3.05109 2.57902 2.86032 2.71967 2.71967C2.86032 2.57902 3.05109 2.5 3.25 2.5H10.75ZM12.25 1H3.25C2.65326 1 2.08097 1.23705 1.65901 1.65901C1.23705 2.08097 1 2.65326 1 3.25L1 9.25H12.25V1Z" fill="white"/>
<path d="M16.75 2.5C16.9489 2.5 17.1397 2.57902 17.2803 2.71967C17.421 2.86032 17.5 3.05109 17.5 3.25V7.75H15.25V2.5H16.75ZM16.75 1H13.75V9.25H19V3.25C19 2.65326 18.7629 2.08097 18.341 1.65901C17.919 1.23705 17.3467 1 16.75 1V1Z" fill="white"/>
<path d="M4.75 12.2501V17.5001H3.25C3.05109 17.5001 2.86032 17.4211 2.71967 17.2805C2.57902 17.1398 2.5 16.949 2.5 16.7501V12.2501H4.75ZM6.25 10.7501H1V16.7501C1 17.3469 1.23705 17.9192 1.65901 18.3411C2.08097 18.7631 2.65326 19.0001 3.25 19.0001H6.25V10.7501Z" fill="white"/>
<path d="M17.5 12.2501V16.7501C17.5 16.949 17.421 17.1398 17.2803 17.2805C17.1397 17.4211 16.9489 17.5001 16.75 17.5001H9.25V12.2501H17.5ZM19 10.7501H7.75V19.0001H16.75C17.3467 19.0001 17.919 18.7631 18.341 18.3411C18.7629 17.9192 19 17.3469 19 16.7501V10.7501Z" fill="white"/>
</g>
<defs>
<clipPath id="clip0_1559_5046">
<rect width="18" height="18" fill="white" transform="translate(1 1)"/>
</clipPath>
</defs>
</svg>
