<svg width="30" height="30" viewBox="0 0 30 30" fill="none" xmlns="http://www.w3.org/2000/svg">
<g clip-path="url(#clip0_1509_3450)">
<path d="M20.0625 21.75H18.375V18.9375C18.375 18.6391 18.2565 18.353 18.0455 18.142C17.8345 17.931 17.5484 17.8125 17.25 17.8125H12.75C12.4516 17.8125 12.1655 17.931 11.9545 18.142C11.7435 18.353 11.625 18.6391 11.625 18.9375V21.75H9.9375V18.9375C9.93839 18.1919 10.235 17.477 10.7622 16.9497C11.2895 16.4225 12.0044 16.1259 12.75 16.125H17.25C17.9956 16.1259 18.7105 16.4225 19.2378 16.9497C19.765 17.477 20.0616 18.1919 20.0625 18.9375V21.75Z" fill="white"/>
<path d="M15 15C14.3325 15 13.68 14.8021 13.125 14.4312C12.5699 14.0604 12.1374 13.5333 11.8819 12.9166C11.6265 12.2999 11.5596 11.6213 11.6899 10.9666C11.8201 10.3119 12.1415 9.71052 12.6135 9.23852C13.0855 8.76651 13.6869 8.44508 14.3416 8.31485C14.9963 8.18463 15.6749 8.25146 16.2916 8.50691C16.9083 8.76235 17.4354 9.19494 17.8062 9.74995C18.1771 10.305 18.375 10.9575 18.375 11.625C18.3741 12.5198 18.0182 13.3778 17.3855 14.0105C16.7528 14.6432 15.8948 14.9991 15 15ZM15 9.9375C14.6662 9.9375 14.34 10.0365 14.0625 10.2219C13.785 10.4073 13.5687 10.6709 13.441 10.9792C13.3132 11.2876 13.2798 11.6269 13.3449 11.9542C13.41 12.2816 13.5708 12.5822 13.8068 12.8182C14.0428 13.0542 14.3434 13.215 14.6708 13.2801C14.9981 13.3452 15.3374 13.3118 15.6458 13.184C15.9541 13.0563 16.2177 12.84 16.4031 12.5625C16.5885 12.285 16.6875 11.9588 16.6875 11.625C16.6875 11.1774 16.5097 10.7482 16.1932 10.4318C15.8768 10.1153 15.4476 9.9375 15 9.9375Z" fill="white"/>
</g>
<path d="M15 27.15C8.28974 27.15 2.85 21.7103 2.85 15H0.15C0.15 23.2014 6.79857 29.85 15 29.85V27.15ZM27.15 15C27.15 21.7103 21.7103 27.15 15 27.15V29.85C23.2014 29.85 29.85 23.2014 29.85 15H27.15ZM15 2.85C21.7103 2.85 27.15 8.28974 27.15 15H29.85C29.85 6.79857 23.2014 0.15 15 0.15V2.85ZM15 0.15C6.79857 0.15 0.15 6.79857 0.15 15H2.85C2.85 8.28974 8.28974 2.85 15 2.85V0.15Z" fill="white"/>
<defs>
<clipPath id="clip0_1509_3450">
<rect width="13.5" height="13.5" fill="white" transform="translate(8.25 8.25)"/>
</clipPath>
</defs>
</svg>
