<svg width="105" height="15" viewBox="0 0 105 15" fill="none" xmlns="http://www.w3.org/2000/svg">
<path d="M0 11.2898V0.0934448H2.98047V8.08839L7.89985 1.77062C7.89985 1.77062 9.05905 0.20691 9.81848 0.20691H12.3825C12.3825 0.20691 4.63905 10.6343 4.50339 10.8346C4.36728 11.0323 4.04322 11.2898 3.53393 11.2898H0Z" fill="white"/>
<path d="M17.2893 0.228699H14.1011V11.2779H17.2893V0.228699Z" fill="white"/>
<path d="M19.1602 0.117004L19.1831 1.413H21.7711V11.3019H24.9097V1.36469H27.4985V0.117004H19.1602Z" fill="white"/>
<path d="M29.4023 0.161743V11.3138H32.4725V6.02033H35.0163C35.0163 6.02033 35.3827 6.02033 35.9853 6.90502C36.5833 7.79059 40.9276 13.5627 40.9276 13.5627C40.9276 13.5627 41.7587 14.7909 42.9824 14.7909H99.1553V13.5441H46.1693C46.1693 13.5441 45.0164 13.6793 44.1618 12.7694C43.2839 11.8364 38.872 6.08992 38.872 6.08992C42.2657 5.88559 42.5921 0.661263 39.0572 0.207398C38.4573 0.161745 29.4023 0.161743 29.4023 0.161743ZM32.4721 1.20421H36.4698C39.1712 1.20421 39.1712 5.25 36.4698 5.25H32.4721V1.20421Z" fill="white"/>
<path d="M52.0141 0H48.0435C45.4785 0 43.3765 2.09026 43.3765 4.61445V6.8625C43.3765 9.40574 45.4785 11.4734 48.0435 11.4734H52.0141C54.6025 11.4734 56.7045 9.40574 56.7045 6.8625V4.61445C56.7045 2.09026 54.6025 0 52.0141 0ZM53.4717 6.63689C53.4717 8.54366 52.3868 10.11 51.0496 10.11H48.9656C47.6261 10.11 46.5201 8.54366 46.5201 6.63689V4.93047C46.5201 3.02149 47.6261 1.45556 48.9656 1.45556H51.0496C52.3868 1.45556 53.4717 3.02149 53.4717 4.93047V6.63689Z" fill="white"/>
<path d="M96.2673 0.161743L93.1201 4.01251L89.9837 0.161743H87.2344L91.7328 5.63827L87.0825 11.2695H89.83L93.1431 7.26447L96.4201 11.2695H99.1694L94.5173 5.63827L99.0166 0.161743H96.2673Z" fill="white"/>
<path d="M79.327 5.06871H85.3817V6.09036H79.327V7.67711C79.327 9.06618 80.4556 10.2008 81.8717 10.2008H85.4619V11.2907H79.578C77.8433 11.2907 76.415 9.90433 76.415 8.18017V0.183899H77.7807H79.3266H85.3812V1.20332H79.3266V5.06871H79.327Z" fill="white"/>
<path d="M58.5298 0.161743H61.0496C62.1579 0.251718 62.0889 0.500812 62.7551 1.45553L66.5702 6.86158L70.3556 1.45553C71.0272 0.500812 70.9533 0.251718 72.0602 0.161743H74.5796V11.2899H72.0602V3.72663L66.5698 11.0412L61.0492 3.72663V11.2899H58.5293V0.161743H58.5298Z" fill="white"/>
<path d="M103.521 0.161377C103.774 0.161377 104.018 0.223428 104.251 0.347975C104.486 0.474295 104.667 0.652031 104.801 0.886056C104.934 1.11964 105.001 1.36253 105.001 1.61694C105.001 1.8718 104.935 2.11247 104.804 2.34294C104.673 2.57298 104.491 2.75205 104.257 2.88058C104.024 3.00912 103.778 3.07294 103.52 3.07294C103.262 3.07294 103.017 3.00912 102.784 2.88058C102.548 2.75205 102.366 2.57298 102.237 2.34294C102.106 2.11247 102.04 1.8718 102.04 1.61694C102.04 1.36253 102.106 1.11964 102.24 0.886056C102.373 0.652031 102.555 0.474295 102.789 0.347975C103.023 0.223428 103.266 0.161377 103.521 0.161377ZM103.523 0.447704C103.318 0.447704 103.123 0.496458 102.936 0.597071C102.749 0.69724 102.602 0.841289 102.495 1.02922C102.387 1.21582 102.335 1.41305 102.335 1.61694C102.335 1.82127 102.386 2.0154 102.492 2.20067C102.596 2.38638 102.743 2.53087 102.931 2.63592C103.119 2.73831 103.316 2.79061 103.523 2.79061C103.73 2.79061 103.928 2.73831 104.115 2.63592C104.303 2.53087 104.449 2.38638 104.554 2.20067C104.661 2.0154 104.713 1.82127 104.713 1.61694C104.713 1.41305 104.659 1.21582 104.553 1.02922C104.445 0.841289 104.298 0.69724 104.11 0.597071C103.922 0.496458 103.725 0.447704 103.523 0.447704ZM102.852 2.3979V0.851483H103.171C103.469 0.851483 103.636 0.853257 103.673 0.855473C103.779 0.864338 103.861 0.885169 103.919 0.917525C103.979 0.94988 104.027 0.999521 104.065 1.06645C104.105 1.13205 104.125 1.20607 104.125 1.28718C104.125 1.39887 104.088 1.49372 104.014 1.57306C103.94 1.6524 103.836 1.70115 103.704 1.72021C103.75 1.73882 103.786 1.75789 103.812 1.77783C103.838 1.79955 103.875 1.84032 103.919 1.8975C103.929 1.91301 103.968 1.97507 104.035 2.08499L104.22 2.3979H103.826L103.694 2.14704C103.606 1.97684 103.533 1.8718 103.474 1.82747C103.416 1.78359 103.343 1.76276 103.255 1.76276H103.171V2.3979H102.852ZM103.171 1.51899H103.3C103.484 1.51899 103.599 1.51189 103.644 1.49727C103.688 1.48353 103.724 1.45959 103.747 1.42458C103.774 1.39 103.787 1.35056 103.787 1.30624C103.787 1.26369 103.774 1.22468 103.75 1.19055C103.724 1.15731 103.688 1.13338 103.643 1.11831C103.596 1.10457 103.482 1.09615 103.3 1.09615H103.171V1.51899Z" fill="white"/>
</svg>
