<svg width="178" height="178" viewBox="0 0 178 178" fill="none" xmlns="http://www.w3.org/2000/svg">
<circle cx="89" cy="89" r="88.5" fill="#EAEAEA" stroke="#C4C4C4"/>
<mask id="mask0_1240_214" style="mask-type:alpha" maskUnits="userSpaceOnUse" x="0" y="0" width="178" height="178">
<circle cx="89" cy="89" r="89" fill="#C4C4C4"/>
</mask>
<g mask="url(#mask0_1240_214)">
<path d="M-3.97314 -3.97321L182.768 182.768" stroke="#C4C4C4"/>
<path d="M-3.97314 182.768L182.768 -3.97321" stroke="#C4C4C4"/>
</g>
<circle cx="88.9999" cy="89" r="50.1092" fill="#EAEAEA"/>
<path d="M65.8149 78.679C65.8149 75.7051 68.3468 73.2941 71.4698 73.2941C74.5928 73.2941 77.1246 75.7051 77.1246 78.679C77.1246 81.6529 74.5928 84.0639 71.4698 84.0639C68.3468 84.0639 65.8149 81.6529 65.8149 78.679Z" fill="#959595"/>
<path d="M112.185 100.218H66.9459V93.7566L72.5321 88.4371C73.1947 87.8062 74.2688 87.8062 74.9313 88.4371L80.5175 93.7566L97.4134 77.6673C98.076 77.0365 99.1501 77.0365 99.8126 77.6673L112.185 89.4487V100.218Z" fill="#959595"/>
</svg>
