<svg width="22" height="21" viewBox="0 0 22 21" fill="none" xmlns="http://www.w3.org/2000/svg">
<path d="M9.81528 0.305891C10.3558 0.00661252 10.9896 -0.0768576 11.5891 0.0722753C12.1887 0.221408 12.7095 0.592077 13.0468 1.1097L13.137 1.2596L21.565 16.4766C21.764 16.8362 21.8691 17.2402 21.8705 17.6511C21.872 18.0621 21.7698 18.4669 21.5733 18.8279C21.3769 19.1889 21.0926 19.4945 20.7467 19.7165C20.4009 19.9386 20.0046 20.0698 19.5946 20.098L19.4273 20.1046H2.5734C2.16285 20.1045 1.75892 20.0011 1.39888 19.8038C1.03885 19.6065 0.734319 19.3217 0.5134 18.9757C0.292482 18.6296 0.162296 18.2335 0.134859 17.8239C0.107422 17.4142 0.183618 17.0043 0.356414 16.6319L0.434622 16.4766L8.86049 1.2596C9.08264 0.858534 9.41313 0.528045 9.81419 0.305891H9.81528ZM20.1399 17.2652L11.7107 2.04928C11.6449 1.93072 11.5505 1.83048 11.4361 1.75765C11.3217 1.68481 11.1909 1.64169 11.0556 1.6322C10.9203 1.62271 10.7848 1.64714 10.6613 1.70328C10.5379 1.75942 10.4304 1.8455 10.3486 1.9537L10.2867 2.04928L1.86084 17.2652C1.79624 17.3815 1.76113 17.512 1.7586 17.645C1.75607 17.7781 1.78618 17.9098 1.84631 18.0285C1.90643 18.1473 1.99474 18.2495 2.1035 18.3262C2.21227 18.403 2.33817 18.4519 2.47021 18.4687L2.5734 18.4752H19.4273C19.5603 18.4751 19.6913 18.4424 19.8088 18.38C19.9263 18.3176 20.0267 18.2274 20.1013 18.1173C20.1759 18.0071 20.2223 17.8804 20.2366 17.7481C20.2509 17.6159 20.2326 17.4821 20.1833 17.3586L20.1399 17.2652L11.7107 2.04928L20.1399 17.2652ZM10.9993 14.6658C11.1446 14.6612 11.2893 14.6859 11.425 14.7383C11.5606 14.7907 11.6842 14.8699 11.7887 14.9711C11.8931 15.0722 11.9761 15.1933 12.0328 15.3272C12.0895 15.4611 12.1187 15.605 12.1187 15.7504C12.1187 15.8958 12.0895 16.0397 12.0328 16.1736C11.9761 16.3075 11.8931 16.4286 11.7887 16.5298C11.6842 16.6309 11.5606 16.7101 11.425 16.7625C11.2893 16.815 11.1446 16.8396 10.9993 16.835C10.7176 16.8261 10.4504 16.7079 10.2542 16.5055C10.0581 16.3031 9.94845 16.0323 9.94845 15.7504C9.94845 15.4686 10.0581 15.1978 10.2542 14.9953C10.4504 14.7929 10.7176 14.6747 10.9993 14.6658ZM10.9938 6.51694C11.1907 6.51665 11.3811 6.58767 11.5296 6.71687C11.6782 6.84607 11.7749 7.0247 11.802 7.21973L11.8096 7.33052L11.8139 12.2207C11.8164 12.4287 11.7391 12.6297 11.5981 12.7826C11.457 12.9355 11.2629 13.0286 11.0554 13.0429C10.8478 13.0572 10.6427 12.9916 10.482 12.8596C10.3213 12.7275 10.2173 12.5389 10.1911 12.3326L10.1846 12.2218L10.1803 7.33161C10.1803 7.11554 10.2661 6.90833 10.4189 6.75555C10.5716 6.60277 10.7789 6.51694 10.9949 6.51694H10.9938Z" fill="#282828"/>
</svg>
