<svg width="17" height="18" viewBox="0 0 17 18" fill="none" xmlns="http://www.w3.org/2000/svg">
<path d="M1.8286 0H10.0573C10.5423 0 11.0074 0.192655 11.3503 0.535583C11.6932 0.878512 11.8859 1.34362 11.8859 1.8286V2.74289C11.8859 2.98538 11.7895 3.21794 11.6181 3.3894C11.4466 3.56086 11.2141 3.65719 10.9716 3.65719C10.7291 3.65719 10.4965 3.56086 10.3251 3.3894C10.1536 3.21794 10.0573 2.98538 10.0573 2.74289V1.8286H1.8286V16.4574H10.0573V15.5431C10.0573 15.3006 10.1536 15.068 10.3251 14.8966C10.4965 14.7251 10.7291 14.6288 10.9716 14.6288C11.2141 14.6288 11.4466 14.7251 11.6181 14.8966C11.7895 15.068 11.8859 15.3006 11.8859 15.5431V16.4574C11.8859 16.9423 11.6932 17.4074 11.3503 17.7504C11.0074 18.0933 10.5423 18.286 10.0573 18.286H1.8286C1.34362 18.286 0.878512 18.0933 0.535583 17.7504C0.192655 17.4074 0 16.9423 0 16.4574V1.8286C0 1.34362 0.192655 0.878512 0.535583 0.535583C0.878512 0.192655 1.34362 0 1.8286 0V0Z" fill="#282828"/>
<path d="M11.6987 13.0699C12.0553 13.4265 12.6313 13.4265 12.9879 13.0699L16.2684 9.78943C16.4398 9.61797 16.5361 9.38546 16.5361 9.14302C16.5361 8.90058 16.4398 8.66807 16.2684 8.49661L12.9879 5.21611C12.8141 5.05902 12.5866 4.97473 12.3524 4.98064C12.1182 4.98655 11.8952 5.08222 11.7296 5.24787C11.5639 5.41352 11.4683 5.63649 11.4623 5.87068C11.4564 6.10487 11.5407 6.33238 11.6978 6.50618L13.413 8.22872H5.48608C5.24359 8.22872 5.01103 8.32505 4.83957 8.49651C4.66811 8.66798 4.57178 8.90053 4.57178 9.14302C4.57178 9.3855 4.66811 9.61806 4.83957 9.78952C5.01103 9.96099 5.24359 10.0573 5.48608 10.0573H13.413L11.6978 11.7799C11.5271 11.9512 11.4314 12.1832 11.4316 12.4251C11.4317 12.6669 11.5278 12.8988 11.6987 13.0699Z" fill="#282828"/>
</svg>
