<svg width="20" height="20" viewBox="0 0 20 20" fill="none" xmlns="http://www.w3.org/2000/svg">
<path d="M3.8286 1H12.0573C12.5423 1 13.0074 1.19266 13.3503 1.53558C13.6932 1.87851 13.8859 2.34362 13.8859 2.8286V3.74289C13.8859 3.98538 13.7895 4.21794 13.6181 4.3894C13.4466 4.56086 13.2141 4.65719 12.9716 4.65719C12.7291 4.65719 12.4965 4.56086 12.3251 4.3894C12.1536 4.21794 12.0573 3.98538 12.0573 3.74289V2.8286H3.8286V17.4574H12.0573V16.5431C12.0573 16.3006 12.1536 16.068 12.3251 15.8966C12.4965 15.7251 12.7291 15.6288 12.9716 15.6288C13.2141 15.6288 13.4466 15.7251 13.6181 15.8966C13.7895 16.068 13.8859 16.3006 13.8859 16.5431V17.4574C13.8859 17.9423 13.6932 18.4074 13.3503 18.7504C13.0074 19.0933 12.5423 19.286 12.0573 19.286H3.8286C3.34362 19.286 2.87851 19.0933 2.53558 18.7504C2.19266 18.4074 2 17.9423 2 17.4574V2.8286C2 2.34362 2.19266 1.87851 2.53558 1.53558C2.87851 1.19266 3.34362 1 3.8286 1Z" fill="white"/>
<path d="M13.6987 14.0698C14.0553 14.4264 14.6313 14.4264 14.9879 14.0698L18.2684 10.7893C18.4398 10.6178 18.5361 10.3853 18.5361 10.1429C18.5361 9.90046 18.4398 9.66794 18.2684 9.49649L14.9879 6.21599C14.8141 6.0589 14.5866 5.9746 14.3524 5.98052C14.1182 5.98643 13.8952 6.0821 13.7296 6.24775C13.5639 6.4134 13.4683 6.63637 13.4623 6.87056C13.4564 7.10475 13.5407 7.33226 13.6978 7.50606L15.413 9.2286H7.48608C7.24359 9.2286 7.01103 9.32493 6.83957 9.49639C6.66811 9.66785 6.57178 9.90041 6.57178 10.1429C6.57178 10.3854 6.66811 10.6179 6.83957 10.7894C7.01103 10.9609 7.24359 11.0572 7.48608 11.0572H15.413L13.6978 12.7797C13.5271 12.9511 13.4314 13.1831 13.4316 13.425C13.4317 13.6668 13.5278 13.8987 13.6987 14.0698Z" fill="white"/>
</svg>
