<svg width="128" height="48" viewBox="0 0 128 48" fill="none" xmlns="http://www.w3.org/2000/svg">
<path d="M0.682129 23.2673V9.11816H4.27672V19.2216L10.2097 11.2377C10.2097 11.2377 11.6078 9.26155 12.5237 9.26155H15.616C15.616 9.26155 6.27703 22.4389 6.11342 22.6921C5.94927 22.9419 5.55844 23.2673 4.94422 23.2673H0.682129Z" fill="white"/>
<path d="M21.5341 9.28906H17.689V23.2523H21.5341V9.28906Z" fill="white"/>
<path d="M23.7905 9.14795L23.8182 10.7857H26.9394V23.2826H30.7248V10.7247H33.847V9.14795H23.7905Z" fill="white"/>
<path d="M36.144 9.20459V23.2978H39.8468V16.6083H42.9147C42.9147 16.6083 43.3566 16.6083 44.0833 17.7262C44.8047 18.8454 50.0441 26.1398 50.0441 26.1398C50.0441 26.1398 51.0464 27.6919 52.5222 27.6919H120.269V26.1163H56.3657C56.3657 26.1163 54.9753 26.2871 53.9447 25.1372C52.8858 23.9581 47.5649 16.6962 47.5649 16.6962C51.6579 16.438 52.0514 9.83585 47.7883 9.26228C47.0648 9.20459 36.144 9.20459 36.144 9.20459ZM39.8463 10.522H44.6677C47.9258 10.522 47.9258 15.6348 44.6677 15.6348H39.8463V10.522Z" fill="white"/>
<path d="M63.414 9H58.6252C55.5318 9 52.9966 11.6415 52.9966 14.8314V17.6723C52.9966 20.8863 55.5318 23.4993 58.6252 23.4993H63.414C66.5357 23.4993 69.0709 20.8863 69.0709 17.6723V14.8314C69.0709 11.6415 66.5357 9 63.414 9ZM65.1719 17.3872C65.1719 19.7969 63.8635 21.7763 62.2508 21.7763H59.7373C58.1219 21.7763 56.7879 19.7969 56.7879 17.3872V15.2308C56.7879 12.8183 58.1219 10.8394 59.7373 10.8394H62.2508C63.8635 10.8394 65.1719 12.8183 65.1719 15.2308V17.3872Z" fill="white"/>
<path d="M116.784 9.20459L112.989 14.0709L109.206 9.20459H105.89L111.316 16.1254L105.707 23.2417H109.021L113.016 18.1805L116.969 23.2417H120.284L114.674 16.1254L120.1 9.20459H116.784Z" fill="white"/>
<path d="M38.9947 38.0617H38.2272L37.0362 32.2023V38.074H36.3394V30.709H37.4558L38.6359 36.5897L39.7758 30.709H40.8923V38.074H40.1345V32.1491L38.9947 38.0617Z" fill="white"/>
<path d="M43.528 30.7095H42.729V38.0734H43.528V30.7095Z" fill="white"/>
<path d="M50.5229 33.9695V34.7055H48.7693V37.3269H50.9224V38.0735H47.9697V30.7085H50.9224V31.4546H48.7693V33.9695H50.5229Z" fill="white"/>
<path d="M55.7831 32.4755V32.6749H55.0243V32.4341C55.0243 31.7698 54.7781 31.3811 54.2041 31.3811C53.6301 31.3811 53.3833 31.7698 53.3833 32.4218C53.3833 34.0736 55.7945 34.2326 55.7945 36.3045C55.7945 37.4197 55.2711 38.1451 54.1725 38.1451C53.0751 38.1451 52.5625 37.4197 52.5625 36.3045V35.8839H53.3115V36.3465C53.3115 37.0097 53.579 37.399 54.1524 37.399C54.727 37.399 54.9939 37.0097 54.9939 36.3465C54.9939 34.7054 52.594 34.5474 52.594 32.475C52.594 31.3396 53.1077 30.6333 54.1829 30.6333C55.2711 30.6339 55.7831 31.3615 55.7831 32.4755Z" fill="white"/>
<path d="M59.0751 30.7085C60.2035 30.7085 60.6862 31.3918 60.6862 32.5082V33.3915C60.6862 34.5593 60.1519 35.1693 59.0142 35.1693H58.3065V38.0735H57.5063V30.7091H59.0751V30.7085ZM59.0142 34.4322C59.6088 34.4322 59.8953 34.1482 59.8953 33.4441V32.465C59.8953 31.7906 59.6594 31.4546 59.0751 31.4546H58.3065V34.4316H59.0142V34.4322Z" fill="white"/>
<path d="M63.0038 36.5891L62.726 38.0728H61.9873L63.362 30.7095H64.5214L65.895 38.0728H65.0943L64.8176 36.5891H63.0038ZM63.106 35.885H64.7057L63.8952 31.6337L63.106 35.885Z" fill="white"/>
<path d="M70.6943 32.4856V33.1494H69.9349V32.4436C69.9349 31.7816 69.6783 31.3816 69.0967 31.3816C68.5195 31.3816 68.2531 31.7821 68.2531 32.4436V36.3359C68.2531 37.0002 68.5195 37.399 69.0967 37.399C69.6783 37.399 69.9349 36.9996 69.9349 36.3359V35.3797H70.6943V36.2939C70.6943 37.4096 70.1828 38.1462 69.075 38.1462C67.977 38.1462 67.4639 37.4102 67.4639 36.2939V32.4856C67.4639 31.3715 67.977 30.6333 69.075 30.6333C70.1828 30.6339 70.6943 31.3715 70.6943 32.4856Z" fill="white"/>
<path d="M73.2376 30.7095H72.438V38.0734H73.2376V30.7095Z" fill="white"/>
<path d="M75.0117 32.4856C75.0117 31.3598 75.5547 30.6333 76.6527 30.6333C77.7605 30.6333 78.3046 31.3598 78.3046 32.4856V36.2939C78.3046 37.4096 77.7605 38.1462 76.6527 38.1462C75.5547 38.1462 75.0117 37.4102 75.0117 36.2939V32.4856ZM75.8021 36.3359C75.8021 37.0091 76.0804 37.3984 76.6522 37.3984C77.2365 37.3984 77.504 37.0091 77.504 36.3359V32.4436C77.504 31.781 77.2365 31.3816 76.6522 31.3816C76.0798 31.3816 75.8021 31.781 75.8021 32.4436V36.3359Z" fill="white"/>
<path d="M80.0269 37.0522V38.0722H80.3242L80.0671 38.9998H80.397L80.7949 37.9989V37.0522H80.0269Z" fill="white"/>
<path d="M87.8819 38.0617H87.1133L85.924 32.2023V38.074H85.2266V30.709H86.343L87.5231 36.5897L88.663 30.709H89.7789V38.074H89.0217V32.1491L87.8819 38.0617Z" fill="white"/>
<path d="M92.4158 30.7095H91.6162V38.0734H92.4158V30.7095Z" fill="white"/>
<path d="M98.0299 38.0617H97.2613L96.0714 32.2023V38.074H95.374V30.709H96.4905L97.67 36.5897L98.8104 30.709H99.9264V38.074H99.1692V32.1491L98.0299 38.0617Z" fill="white"/>
<path d="M102.521 36.3367C102.521 36.9999 102.779 37.3993 103.363 37.3993C103.937 37.3993 104.194 36.9993 104.194 36.3367V30.7075H104.942V36.2947C104.942 37.4105 104.438 38.1571 103.332 38.1571C102.234 38.1571 101.732 37.4105 101.732 36.2947V30.7075H102.521V36.3367Z" fill="white"/>
<path d="M107.454 38.0729H106.737V30.709H107.752L109.413 36.0318V30.709H110.121V38.0729H109.29L107.454 32.1182V38.0729Z" fill="white"/>
<path d="M113.639 30.7085C114.755 30.7085 115.269 31.4025 115.269 32.539V36.2526C115.269 37.3801 114.755 38.0735 113.639 38.0735H111.956V30.7091H113.639V30.7085ZM113.628 37.3263C114.204 37.3263 114.478 36.9572 114.478 36.2845V32.4964C114.478 31.8226 114.203 31.4557 113.617 31.4557H112.756V37.3263H113.628Z" fill="white"/>
<path d="M116.971 32.4856C116.971 31.3598 117.514 30.6333 118.613 30.6333C119.719 30.6333 120.264 31.3598 120.264 32.4856V36.2939C120.264 37.4096 119.719 38.1462 118.613 38.1462C117.514 38.1462 116.971 37.4102 116.971 36.2939V32.4856ZM117.76 36.3359C117.76 37.0091 118.04 37.3984 118.612 37.3984C119.197 37.3984 119.463 37.0091 119.463 36.3359V32.4436C119.463 31.781 119.197 31.3816 118.612 31.3816C118.039 31.3816 117.76 31.781 117.76 32.4436V36.3359Z" fill="white"/>
<path d="M96.3543 15.4055H103.656V16.6966H96.3543V18.7018C96.3543 20.4572 97.7153 21.8911 99.4232 21.8911H103.753V23.2684H96.657C94.5648 23.2684 92.8423 21.5164 92.8423 19.3375V9.23242H94.4893H96.3537H103.656V10.5207H96.3537V15.4055H96.3543Z" fill="white"/>
<path d="M71.2711 9.20459H74.3101C75.6467 9.31829 75.5636 9.63308 76.367 10.8396L80.9682 17.6714L85.5336 10.8396C86.3435 9.63308 86.2544 9.31829 87.5894 9.20459H90.6279V23.2675H87.5894V13.7096L80.9677 22.9533L74.3096 13.7096V23.2675H71.2705V9.20459H71.2711Z" fill="white"/>
<path d="M125.533 9.20361C125.839 9.20361 126.133 9.28203 126.414 9.43942C126.697 9.59906 126.916 9.82367 127.078 10.1194C127.237 10.4146 127.318 10.7215 127.318 11.043C127.318 11.3651 127.238 11.6693 127.081 11.9605C126.923 12.2512 126.704 12.4775 126.42 12.6399C126.139 12.8024 125.844 12.883 125.532 12.883C125.221 12.883 124.925 12.8024 124.644 12.6399C124.36 12.4775 124.141 12.2512 123.985 11.9605C123.827 11.6693 123.747 11.3651 123.747 11.043C123.747 10.7215 123.826 10.4146 123.988 10.1194C124.148 9.82367 124.368 9.59906 124.651 9.43942C124.933 9.28203 125.226 9.20361 125.533 9.20361ZM125.535 9.56545C125.289 9.56545 125.054 9.62706 124.828 9.75421C124.603 9.8808 124.425 10.0628 124.296 10.3003C124.166 10.5361 124.103 10.7854 124.103 11.043C124.103 11.3013 124.164 11.5466 124.292 11.7807C124.418 12.0154 124.595 12.198 124.822 12.3308C125.048 12.4601 125.286 12.5262 125.535 12.5262C125.785 12.5262 126.024 12.4601 126.25 12.3308C126.476 12.198 126.652 12.0154 126.779 11.7807C126.908 11.5466 126.971 11.3013 126.971 11.043C126.971 10.7854 126.906 10.5361 126.778 10.3003C126.648 10.0628 126.47 9.8808 126.243 9.75421C126.017 9.62706 125.78 9.56545 125.535 9.56545ZM124.726 12.03V10.0757H125.111C125.471 10.0757 125.672 10.078 125.716 10.0808C125.844 10.092 125.944 10.1183 126.014 10.1592C126.086 10.2001 126.143 10.2628 126.19 10.3474C126.238 10.4303 126.262 10.5238 126.262 10.6263C126.262 10.7675 126.217 10.8873 126.127 10.9876C126.038 11.0879 125.914 11.1495 125.753 11.1736C125.809 11.1971 125.853 11.2212 125.884 11.2464C125.916 11.2738 125.961 11.3253 126.013 11.3976C126.026 11.4172 126.072 11.4956 126.153 11.6345L126.376 12.03H125.901L125.741 11.713C125.636 11.4979 125.547 11.3651 125.476 11.3091C125.406 11.2537 125.318 11.2273 125.213 11.2273H125.111V12.03H124.726ZM125.111 10.9193H125.267C125.489 10.9193 125.627 10.9103 125.681 10.8918C125.734 10.8744 125.778 10.8442 125.806 10.8C125.839 10.7563 125.854 10.7064 125.854 10.6504C125.854 10.5966 125.839 10.5473 125.809 10.5042C125.778 10.4622 125.735 10.432 125.68 10.4129C125.624 10.3956 125.486 10.3849 125.267 10.3849H125.111V10.9193Z" fill="white"/>
</svg>
