<svg width="233" height="56" viewBox="0 0 233 56" fill="none" xmlns="http://www.w3.org/2000/svg">
<path d="M0 26.2479V0.217529H6.613V18.8049L17.528 4.11678C17.528 4.11678 20.1 0.481323 21.785 0.481323H27.474C27.474 0.481323 10.293 24.7239 9.992 25.1896C9.69 25.6492 8.971 26.2479 7.841 26.2479H0Z" fill="white"/>
<path d="M38.3621 0.531738H31.2881V26.22H38.3621V0.531738Z" fill="white"/>
<path d="M42.5129 0.271973L42.5639 3.28502H48.3059V26.2755H55.2699V3.17271H61.0139V0.271973H42.5129Z" fill="white"/>
<path d="M65.24 0.376221V26.3035H72.052V13.9968H77.696C77.696 13.9968 78.509 13.9968 79.846 16.0536C81.173 18.1125 90.812 31.5321 90.812 31.5321C90.812 31.5321 92.656 34.3875 95.371 34.3875H220.006V31.4888H102.442C102.442 31.4888 99.884 31.8031 97.988 29.6876C96.04 27.5185 86.251 14.1586 86.251 14.1586C93.781 13.6835 94.505 1.53755 86.662 0.482362C85.331 0.376225 65.24 0.376221 65.24 0.376221ZM72.051 2.79985H80.921C86.915 2.79985 86.915 12.2059 80.921 12.2059H72.051V2.79985Z" fill="white"/>
<path d="M115.408 0H106.598C100.907 0 96.2429 4.85963 96.2429 10.7281V15.9546C96.2429 21.8673 100.907 26.6744 106.598 26.6744H115.408C121.151 26.6744 125.815 21.8673 125.815 15.9546V10.7281C125.815 4.85963 121.151 0 115.408 0ZM118.642 15.4301C118.642 19.8631 116.235 23.5047 113.268 23.5047H108.644C105.672 23.5047 103.218 19.8631 103.218 15.4301V11.4628C103.218 7.02463 105.672 3.38402 108.644 3.38402H113.268C116.235 3.38402 118.642 7.02463 118.642 11.4628V15.4301Z" fill="white"/>
<path d="M213.594 0.376221L206.611 9.32884L199.652 0.376221H193.552L203.533 13.1086L193.215 26.2005H199.311L206.662 16.8893L213.933 26.2005H220.033L209.711 13.1086L219.694 0.376221H213.594Z" fill="white"/>
<path d="M70.4841 53.4653H69.0721L66.8811 42.6857V53.488H65.5991V39.9385H67.6531L69.8241 50.7572L71.9211 39.9385H73.9751V53.488H72.5811V42.5878L70.4841 53.4653Z" fill="white"/>
<path d="M78.824 39.9395H77.354V53.4869H78.824V39.9395Z" fill="white"/>
<path d="M91.6921 45.9368V47.2908H88.4661V52.1134H92.4271V53.487H86.9951V39.9375H92.4271V41.3101H88.4661V45.9368H91.6921Z" fill="white"/>
<path d="M101.37 43.1885V43.5553H99.9741V43.1122C99.9741 41.8901 99.5211 41.175 98.4651 41.175C97.4091 41.175 96.9551 41.8901 96.9551 43.0896C96.9551 46.1284 101.391 46.421 101.391 50.2327C101.391 52.2843 100.428 53.6188 98.4071 53.6188C96.3881 53.6188 95.4451 52.2843 95.4451 50.2327V49.4588H96.8231V50.31C96.8231 51.53 97.3151 52.2462 98.3701 52.2462C99.4271 52.2462 99.9181 51.53 99.9181 50.31C99.9181 47.2907 95.5031 47.0002 95.5031 43.1875C95.5031 41.0987 96.4481 39.7993 98.4261 39.7993C100.428 39.8003 101.37 41.1389 101.37 43.1885Z" fill="white"/>
<path d="M107.426 39.9375C109.502 39.9375 110.39 41.1947 110.39 43.2484V44.8734C110.39 47.0219 109.407 48.1441 107.314 48.1441H106.012V53.487H104.54V39.9385H107.426V39.9375ZM107.314 46.788C108.408 46.788 108.935 46.2655 108.935 44.9703V43.169C108.935 41.9283 108.501 41.3101 107.426 41.3101H106.012V46.787H107.314V46.788Z" fill="white"/>
<path d="M114.654 50.7562L114.143 53.4859H112.784L115.313 39.9395H117.446L119.973 53.4859H118.5L117.991 50.7562H114.654ZM114.842 49.4609H117.785L116.294 41.6397L114.842 49.4609Z" fill="white"/>
<path d="M128.802 43.207V44.4281H127.405V43.1298C127.405 41.9118 126.933 41.176 125.863 41.176C124.801 41.176 124.311 41.9128 124.311 43.1298V50.2904C124.311 51.5125 124.801 52.2462 125.863 52.2462C126.933 52.2462 127.405 51.5115 127.405 50.2904V48.5314H128.802V50.2131C128.802 52.2658 127.861 53.6208 125.823 53.6208C123.803 53.6208 122.859 52.2668 122.859 50.2131V43.207C122.859 41.1575 123.803 39.7993 125.823 39.7993C127.861 39.8003 128.802 41.1575 128.802 43.207Z" fill="white"/>
<path d="M133.481 39.9395H132.01V53.4869H133.481V39.9395Z" fill="white"/>
<path d="M136.745 43.207C136.745 41.1358 137.744 39.7993 139.764 39.7993C141.802 39.7993 142.803 41.1358 142.803 43.207V50.2131C142.803 52.2658 141.802 53.6208 139.764 53.6208C137.744 53.6208 136.745 52.2668 136.745 50.2131V43.207ZM138.199 50.2904C138.199 51.529 138.711 52.2452 139.763 52.2452C140.838 52.2452 141.33 51.529 141.33 50.2904V43.1298C141.33 41.9107 140.838 41.176 139.763 41.176C138.71 41.176 138.199 41.9107 138.199 43.1298V50.2904Z" fill="white"/>
<path d="M145.971 51.6084V53.4849H146.518L146.045 55.1913H146.652L147.384 53.3499V51.6084H145.971Z" fill="white"/>
<path d="M160.422 53.4653H159.008L156.82 42.6857V53.488H155.537V39.9385H157.591L159.762 50.7572L161.859 39.9385H163.912V53.488H162.519V42.5878L160.422 53.4653Z" fill="white"/>
<path d="M168.763 39.9395H167.292V53.4869H168.763V39.9395Z" fill="white"/>
<path d="M179.091 53.4653H177.677L175.488 42.6857V53.488H174.205V39.9385H176.259L178.429 50.7572L180.527 39.9385H182.58V53.488H181.187V42.5878L179.091 53.4653Z" fill="white"/>
<path d="M187.354 50.2914C187.354 51.5115 187.828 52.2462 188.902 52.2462C189.958 52.2462 190.431 51.5104 190.431 50.2914V39.9353H191.808V50.2141C191.808 52.2668 190.881 53.6404 188.846 53.6404C186.826 53.6404 185.902 52.2668 185.902 50.2141V39.9353H187.354V50.2914Z" fill="white"/>
<path d="M196.429 53.4859H195.11V39.9385H196.977L200.034 49.7309V39.9385H201.335V53.4859H199.807L196.429 42.5311V53.4859Z" fill="white"/>
<path d="M207.808 39.9375C209.862 39.9375 210.807 41.2142 210.807 43.305V50.137C210.807 52.2113 209.862 53.487 207.808 53.487H204.711V39.9385H207.808V39.9375ZM207.787 52.1124C208.847 52.1124 209.352 51.4333 209.352 50.1957V43.2267C209.352 41.9871 208.846 41.3121 207.768 41.3121H206.184V52.1124H207.787Z" fill="white"/>
<path d="M213.938 43.207C213.938 41.1358 214.937 39.7993 216.958 39.7993C218.994 39.7993 219.996 41.1358 219.996 43.207V50.2131C219.996 52.2658 218.994 53.6208 216.958 53.6208C214.937 53.6208 213.938 52.2668 213.938 50.2131V43.207ZM215.39 50.2904C215.39 51.529 215.904 52.2452 216.957 52.2452C218.032 52.2452 218.522 51.529 218.522 50.2904V43.1298C218.522 41.9107 218.032 41.176 216.957 41.176C215.903 41.176 215.39 41.9107 215.39 43.1298V50.2904Z" fill="white"/>
<path d="M176.009 11.7844H189.443V14.1596H176.009V17.8486C176.009 21.0781 178.513 23.7161 181.655 23.7161H189.621V26.2499H176.566C172.717 26.2499 169.548 23.0267 169.548 19.0182V0.427734H172.578H176.008H189.442V2.79778H176.008V11.7844H176.009Z" fill="white"/>
<path d="M129.863 0.376221H135.454C137.913 0.585404 137.76 1.16452 139.238 3.38412L147.703 15.9526L156.102 3.38412C157.592 1.16452 157.428 0.585404 159.884 0.376221H165.474V26.2479H159.884V8.66419L147.702 25.6698L135.453 8.66419V26.2479H129.862V0.376221H129.863Z" fill="white"/>
<path d="M229.689 0.375C230.252 0.375 230.793 0.519262 231.31 0.80882C231.83 1.1025 232.233 1.51572 232.531 2.0598C232.825 2.60285 232.973 3.16754 232.973 3.75903C232.973 4.35154 232.827 4.91107 232.537 5.44691C232.247 5.98171 231.843 6.39802 231.322 6.69686C230.805 6.99569 230.261 7.14407 229.688 7.14407C229.116 7.14407 228.571 6.99569 228.054 6.69686C227.532 6.39802 227.128 5.98171 226.841 5.44691C226.551 4.91107 226.403 4.35154 226.403 3.75903C226.403 3.16754 226.55 2.60285 226.847 2.0598C227.142 1.51572 227.547 1.1025 228.066 0.80882C228.585 0.519262 229.125 0.375 229.689 0.375ZM229.694 1.04068C229.24 1.04068 228.808 1.15403 228.393 1.38794C227.978 1.62082 227.651 1.95572 227.414 2.39264C227.174 2.82646 227.058 3.28502 227.058 3.75903C227.058 4.23407 227.171 4.6854 227.406 5.11613C227.638 5.54789 227.964 5.88382 228.381 6.12804C228.797 6.36608 229.236 6.48767 229.694 6.48767C230.154 6.48767 230.593 6.36608 231.008 6.12804C231.424 5.88382 231.749 5.54789 231.982 5.11613C232.219 4.6854 232.335 4.23407 232.335 3.75903C232.335 3.28502 232.215 2.82646 231.979 2.39264C231.741 1.95572 231.413 1.62082 230.996 1.38794C230.579 1.15403 230.143 1.04068 229.694 1.04068ZM228.205 5.57468V1.97942H228.913C229.575 1.97942 229.945 1.98355 230.027 1.9887C230.262 2.00931 230.445 2.05774 230.574 2.13296C230.706 2.20818 230.812 2.32359 230.898 2.47919C230.986 2.6317 231.031 2.80379 231.031 2.99236C231.031 3.25204 230.948 3.47255 230.783 3.657C230.619 3.84146 230.39 3.95481 230.095 3.99912C230.198 4.0424 230.279 4.08671 230.335 4.13308C230.394 4.18357 230.476 4.27837 230.573 4.4113C230.596 4.44737 230.682 4.59163 230.83 4.84719L231.241 5.57468H230.366L230.073 4.99145C229.879 4.59576 229.716 4.35154 229.585 4.24849C229.456 4.14648 229.294 4.09804 229.1 4.09804H228.914V5.57468H228.205ZM228.913 3.53129H229.2C229.608 3.53129 229.862 3.5148 229.962 3.4808C230.06 3.44885 230.14 3.39321 230.192 3.3118C230.252 3.23143 230.28 3.13972 230.28 3.03667C230.28 2.93775 230.252 2.84707 230.197 2.76772C230.141 2.69044 230.061 2.6348 229.96 2.59976C229.856 2.56782 229.603 2.54824 229.2 2.54824H228.913V3.53129Z" fill="white"/>
</svg>
