<svg width="24" height="24" viewBox="0 0 24 24" fill="none" xmlns="http://www.w3.org/2000/svg">
<g clip-path="url(#clip0_1384_10091)">
<path d="M20.4501 10.2004C19.7733 9.0921 18.9196 8.10212 17.9228 7.26975L20.022 5.17054C20.3097 4.87271 20.3014 4.3981 20.0036 4.11045C19.713 3.82983 19.2524 3.82983 18.9619 4.11045L16.679 6.39634C15.2638 5.55578 13.6459 5.11765 12 5.12932C7.35844 5.12932 4.71342 8.30665 3.54987 10.2005C2.81671 11.3863 2.81671 12.8847 3.54987 14.0705C4.22669 15.1788 5.08042 16.1688 6.07719 17.0012L3.97798 19.1004C3.68014 19.388 3.67189 19.8627 3.95953 20.1605C4.24718 20.4583 4.72182 20.4666 5.01963 20.1789C5.02588 20.1729 5.03203 20.1667 5.03808 20.1605L7.32622 17.8724C8.73964 18.7128 10.3556 19.1516 12 19.1416C16.6415 19.1416 19.2865 15.9643 20.4501 14.0705C21.1833 12.8847 21.1833 11.3863 20.4501 10.2004ZM7.50169 12.1355C7.49743 9.65524 9.50457 7.64118 11.9848 7.63693C12.9232 7.63531 13.8386 7.92774 14.6023 8.47309L13.5137 9.56169C13.0567 9.28609 12.5337 9.1392 12 9.1366C10.3438 9.1366 9.00114 10.4792 9.00114 12.1355C9.00374 12.6691 9.15064 13.1922 9.42623 13.6492L8.33764 14.7378C7.79404 13.9789 7.50172 13.0689 7.50169 12.1355ZM12 16.6338C11.0666 16.6338 10.1566 16.3414 9.39773 15.7978L10.4863 14.7093C10.9433 14.9848 11.4664 15.1317 12 15.1343C13.6562 15.1343 14.9989 13.7917 14.9989 12.1355C14.9963 11.6018 14.8494 11.0788 14.5738 10.6218L15.6624 9.53319C17.1037 11.5516 16.6359 14.3563 14.6175 15.7976C13.8538 16.343 12.9384 16.6354 12 16.6338Z" fill="white"/>
</g>
<defs>
<clipPath id="clip0_1384_10091">
<rect width="18" height="18" fill="white" transform="translate(3 3)"/>
</clipPath>
</defs>
</svg>
