<svg width="20" height="20" viewBox="0 0 20 20" fill="none" xmlns="http://www.w3.org/2000/svg">
<g clip-path="url(#clip0_1253_1020)">
<path d="M10.75 2.50003V7.75003H2.5V3.25003C2.5 3.05112 2.57902 2.86035 2.71967 2.7197C2.86032 2.57905 3.05109 2.50003 3.25 2.50003H10.75ZM12.25 1.00003H3.25C2.65326 1.00003 2.08097 1.23708 1.65901 1.65904C1.23705 2.081 1 2.65329 1 3.25003L1 9.25003H12.25V1.00003Z" fill="#282828"/>
<path d="M16.75 2.50009C16.9489 2.50009 17.1397 2.57911 17.2803 2.71976C17.421 2.86041 17.5 3.05118 17.5 3.25009V7.75009H15.25V2.50009H16.75ZM16.75 1.00009H13.75V9.25009H19V3.25009C19 2.65335 18.7629 2.08106 18.341 1.6591C17.919 1.23714 17.3467 1.00009 16.75 1.00009V1.00009Z" fill="#282828"/>
<path d="M4.75 12.2501V17.5001H3.25C3.05109 17.5001 2.86032 17.4211 2.71967 17.2804C2.57902 17.1398 2.5 16.949 2.5 16.7501V12.2501H4.75ZM6.25 10.7501H1V16.7501C1 17.3468 1.23705 17.9191 1.65901 18.3411C2.08097 18.763 2.65326 19.0001 3.25 19.0001H6.25V10.7501Z" fill="#282828"/>
<path d="M17.5 12.2501V16.7501C17.5 16.949 17.421 17.1398 17.2803 17.2804C17.1397 17.4211 16.9489 17.5001 16.75 17.5001H9.25V12.2501H17.5ZM19 10.7501H7.75V19.0001H16.75C17.3467 19.0001 17.919 18.763 18.341 18.3411C18.7629 17.9191 19 17.3468 19 16.7501V10.7501Z" fill="#282828"/>
</g>
<defs>
<clipPath id="clip0_1253_1020">
<rect width="18" height="18" fill="white" transform="translate(1 1)"/>
</clipPath>
</defs>
</svg>
