<?xml version="1.0" encoding="utf-8"?>
<!-- Generator: Adobe Illustrator 16.0.0, SVG Export Plug-In . SVG Version: 6.00 Build 0)  -->
<!DOCTYPE svg PUBLIC "-//W3C//DTD SVG 1.1//EN" "http://www.w3.org/Graphics/SVG/1.1/DTD/svg11.dtd">
<svg version="1.1" id="Capa_1" xmlns="http://www.w3.org/2000/svg" xmlns:xlink="http://www.w3.org/1999/xlink" x="0px" y="0px"
	 width="612px" height="792px" viewBox="0 0 612 792" enable-background="new 0 0 612 792" xml:space="preserve">
<g>
	<path fill="#FFFFFF" d="M256.814,343.698c0.046-11-6.761-19.878-17.529-22.107h-24.889c-8.361,1.643-15.418,8.903-16.928,17.338
		c-0.97,5.414-0.609,10.926-0.292,16.378c0.582,9.998,9.64,18.667,19.684,18.898c6.643,0.153,13.294,0.14,19.938,0.006
		c9.626-0.195,18.301-7.95,19.724-17.46C257.172,352.416,256.796,348.048,256.814,343.698 M241.203,359.19
		c-0.768,2.174-1.819,4.173-3.414,5.86c-1.88,1.991-4.156,3.048-6.931,3.013c-2.709-0.033-5.42-0.038-8.129,0.001
		c-2.966,0.044-5.353-1.143-7.281-3.32c-2.283-2.579-3.682-5.63-3.982-9.021c-0.496-5.599-0.808-11.229,0.367-16.797
		c0.487-2.307,1.493-4.419,2.945-6.285c2.067-2.657,4.655-4.244,8.181-4.091c2.6,0.112,5.208,0.093,7.809,0.004
		c3.195-0.109,5.641,1.245,7.59,3.633c2.885,3.534,3.875,7.708,3.982,12.158c0.031,1.327,0.004,2.655,0.004,4.523
		C242.38,351.992,242.45,355.657,241.203,359.19"/>
	<path fill="#FFFFFF" d="M0,322.257c3.878,0.016,7.757,0.092,11.633,0.013c1.391-0.028,1.857,0.256,1.848,1.775
		c-0.074,11.422-0.04,22.844-0.04,34.296c0.66,0.046,0.767-0.525,1.022-0.858c6.959-9.052,13.905-18.116,20.854-27.177
		c0.517-0.674,1.063-1.326,1.574-2.006c2.925-3.896,6.156-5.435,11.689-5.49c2.242-0.022,4.525,0.055,7.037,0.055
		c-0.614,0.864-1.084,1.542-1.571,2.208c-11.137,15.272-22.279,30.541-33.406,45.821c-0.952,1.307-2.097,2.355-3.749,2.404
		C11.262,373.467,5.63,373.514,0,373.282V322.257z"/>
	<path fill="#FFFFFF" d="M470.578,332.462c-0.926-0.503-0.761,0.478-0.945,0.785c-1.436,2.377-3.513,3.661-6.275,3.667
		c-2.694,0.006-4.81-1.181-6.179-3.525c-2.01-3.438-0.808-7.901,2.593-9.805c3.628-2.03,7.979-0.715,9.953,2.949
		c0.156,0.288-0.037,1.207,0.854,0.827V332.462z M469.072,329.798c0.002-3.261-2.492-5.744-5.752-5.729
		c-3.22,0.016-5.787,2.616-5.728,5.802c0.058,3.111,2.624,5.67,5.717,5.701C466.484,335.604,469.071,333.013,469.072,329.798"/>
	<path fill="#FFFFFF" d="M176.87,349.799c3.029,3.976,5.923,7.829,8.876,11.637c4.363,5.625,8.825,11.174,13.134,16.839
		c2.978,3.913,6.761,5.508,11.693,5.504c79.642-0.072,159.285-0.046,238.926-0.088c1.535-0.001,1.817,0.479,1.787,1.866
		c-0.085,3.856-0.026,3.857-3.919,3.857c-83.418,0-166.834-0.02-250.251,0.052c-4.786,0.004-8.289-1.867-11.002-5.551
		c-7.558-10.265-15.22-20.452-22.55-30.883c-0.427-0.608-0.894-1.189-1.376-1.755c-1.12-1.313-2.424-2.053-4.287-1.948
		c-2.756,0.154-5.529,0.098-8.291,0.013c-1.206-0.037-1.608,0.236-1.595,1.538c0.072,7.015-0.002,14.03,0.065,21.044
		c0.013,1.309-0.297,1.706-1.645,1.668c-3.612-0.1-7.229-0.074-10.844-0.01c-1.057,0.019-1.324-0.296-1.322-1.334
		c0.032-16.103,0.036-32.205-0.006-48.308c-0.003-1.201,0.434-1.352,1.469-1.346c13.398,0.071,26.796-0.033,40.192,0.226
		c8.38,0.162,14.007,6.721,12.873,15.049c-0.881,6.473-4.713,10.511-11.166,11.767C177.446,349.673,177.261,349.716,176.87,349.799
		 M157.961,345.856c2.765,0,5.53,0.034,8.293-0.008c5.138-0.077,8.805-3.867,8.864-9.108c0.059-5.235-3.526-9.216-8.646-9.322
		c-5.793-0.12-11.589-0.016-17.384-0.056c-0.872-0.006-1.058,0.302-1.054,1.104c0.029,5.42,0.036,10.841-0.006,16.261
		c-0.006,0.914,0.26,1.168,1.161,1.152C152.112,345.826,155.037,345.86,157.961,345.856"/>
	<path fill="#FFFFFF" d="M301.079,353.23c0.495-0.694,0.834-1.158,1.16-1.632c5.972-8.711,11.979-17.398,17.882-26.155
		c1.437-2.13,3.447-2.738,5.735-2.797c3.401-0.088,6.807,0.024,10.207-0.052c1.408-0.032,1.036,0.888,1.037,1.597
		c0.013,13.393,0.009,26.786,0.009,40.177c0,2.604-0.046,5.209,0.022,7.812c0.026,1.004-0.305,1.264-1.271,1.245
		c-2.922-0.058-5.85-0.083-8.771,0.009c-1.198,0.038-1.354-0.416-1.352-1.458c0.037-10.364,0.022-20.727,0.022-31.091v-1.951
		c-3.622,4.905-6.977,9.453-10.336,13.999c-4.448,6.021-8.923,12.025-13.326,18.079c-0.761,1.046-1.094,1.16-1.921,0.038
		c-7.591-10.302-15.238-20.562-22.876-30.831c-0.236-0.318-0.364-0.757-0.978-0.904v1.574c0,10.311-0.03,20.62,0.036,30.931
		c0.008,1.365-0.367,1.667-1.666,1.616c-2.761-0.106-5.529-0.066-8.292-0.013c-0.962,0.019-1.37-0.13-1.367-1.26
		c0.042-16.104,0.026-32.206,0.04-48.309c0-0.502-0.307-1.267,0.708-1.238c3.981,0.116,7.968-0.209,11.948,0.195
		c2.031,0.207,3.352,1.291,4.468,2.926C288.417,334.858,294.69,343.941,301.079,353.23"/>
	<path fill="#FFFFFF" d="M424.106,340.309c4.433-5.515,8.773-10.884,13.067-16.291c0.714-0.9,1.427-1.353,2.647-1.317
		c3.446,0.1,6.896,0.035,10.361,0.035c0.159,0.651-0.352,0.896-0.62,1.229c-6.095,7.575-12.181,15.157-18.338,22.681
		c-0.747,0.915-0.64,1.375,0.043,2.207c6.398,7.807,12.748,15.653,19.111,23.489c0.195,0.239,0.377,0.488,0.665,0.86
		c-0.851,0.34-1.635,0.188-2.387,0.194c-2.818,0.021-5.637-0.029-8.454,0.029c-0.944,0.02-1.546-0.282-2.137-1.024
		c-4.265-5.364-8.603-10.671-12.853-16.047c-0.779-0.986-1.135-1.119-1.986-0.05c-4.306,5.4-8.714,10.719-13.041,16.103
		c-0.596,0.742-1.2,1.03-2.139,1.018c-3.56-0.05-7.12-0.02-10.778-0.02c0.158-0.745,0.678-1.142,1.056-1.606
		c6.19-7.634,12.38-15.27,18.614-22.869c0.724-0.881,0.817-1.414,0.035-2.37c-6.39-7.811-12.707-15.677-19.062-23.544
		c0.481-0.508,1.037-0.262,1.518-0.266c3.03-0.028,6.062,0.039,9.092-0.042c1.138-0.03,1.818,0.372,2.511,1.25
		C415.307,329.378,419.646,334.746,424.106,340.309"/>
	<path fill="#FFFFFF" d="M366.735,322.736c6.166,0,12.331,0.037,18.496-0.032c1.217-0.014,1.5,0.316,1.473,1.497
		c-0.074,3.177-0.014,3.178-3.236,3.178c-7.494,0-14.988,0.027-22.482-0.028c-1.16-0.009-1.52,0.228-1.499,1.457
		c0.08,4.887,0.071,9.776,0.005,14.663c-0.017,1.202,0.238,1.593,1.532,1.581c7.972-0.066,15.945-0.003,23.917-0.063
		c1.323-0.01,1.846,0.191,1.775,1.69c-0.14,3.005-0.038,3.01-3.095,3.01c-7.547,0-15.095,0.026-22.642-0.028
		c-1.155-0.009-1.578,0.213-1.487,1.452c0.202,2.747-0.3,5.534,0.296,8.259c1.183,5.407,5.648,9.04,11.167,9.089
		c4.942,0.044,9.886,0.032,14.829-0.01c0.919-0.009,1.27,0.138,1.27,1.185c0.002,3.771,0.051,3.771-3.775,3.771
		c-7.334,0-14.669,0.015-22.004-0.005c-8.804-0.024-14.817-6.032-14.824-14.796c-0.008-11.423,0.024-22.845-0.036-34.268
		c-0.007-1.35,0.355-1.65,1.666-1.635C354.297,322.777,360.517,322.736,366.735,322.736"/>
	<path fill="#FFFFFF" d="M87.4,322.458v5.897c3.028-0.051,7.024,0.039,10.05-0.049c1.167-0.034,1.506,0.234,1.495,1.458
		c-0.066,7.064-0.033,14.131-0.033,21.195c0,6.959,0.034,13.918-0.031,20.877c-0.011,1.274,0.221,1.759,1.616,1.689
		c2.545-0.126,5.102,0,7.651-0.049c1.579-0.031,3.681,0.686,4.58-0.308c0.779-0.86,0.251-2.929,0.252-4.464
		c0.008-13.016,0.023-26.029-0.025-39.045c-0.004-1.263,0.323-1.643,1.583-1.576c2.014,0.107,7.538,0.029,9.557,0.029v-5.688
		C113.732,322.476,97.763,322.449,87.4,322.458"/>
	<path fill="#FFFFFF" d="M78.802,348.079c0,7.967-0.024,15.933,0.027,23.899c0.007,1.11-0.265,1.412-1.387,1.391
		c-3.877-0.075-7.757-0.057-11.635-0.011c-0.962,0.012-1.369-0.13-1.367-1.263c0.042-15.986,0.039-31.972,0.007-47.957
		c-0.002-0.987,0.258-1.25,1.241-1.236c3.984,0.057,7.97,0.067,11.954-0.005c1.069-0.019,1.181,0.387,1.177,1.284
		C78.789,332.146,78.802,340.113,78.802,348.079"/>
	<path fill="#FFFFFF" d="M466.552,333.477c-1.232,0.429-1.952,0.076-2.346-1.018c-0.124-0.342-0.353-0.65-0.55-0.963
		c-0.386-0.618-0.922-1.179-1.67-0.919c-0.712,0.246-0.206,1.009-0.328,1.526c-0.058,0.252-0.022,0.529-0.008,0.793
		c0.03,0.515-0.136,0.768-0.717,0.76c-0.598-0.007-0.861-0.186-0.854-0.819c0.025-2.016,0.022-4.031,0-6.047
		c-0.006-0.552,0.202-0.756,0.741-0.741c0.848,0.023,1.698,0.017,2.547,0.005c1.222-0.018,2.381,0.084,2.782,1.532
		c0.315,1.142-0.092,1.833-1.598,2.76C465.386,331.23,465.992,332.257,466.552,333.477 M462.433,329.332
		c1.058-0.118,2.103,0.149,2.113-1.029c0.013-1.316-1.145-0.905-1.903-1.046c-0.897-0.166-0.986,0.317-1.021,1.069
		C461.579,329.246,461.982,329.42,462.433,329.332"/>
	<path fill="#7F7F7F" d="M577.961,453.82c-0.084-16.709-0.306-35.627-0.484-52.338h-3.628c-0.276,16.33-0.552,32.656-0.842,49.771
		l-17.659-8.834l-0.088-40.938h-3.689c-0.193,11.596-0.37,27.271-0.606,38.865l-16.104-8.809l0.19-30.057h-4.725
		c-0.181,8.166-0.363,19.301-0.544,27.465l-15.915-8.291l-0.063-19.174h-4.663l-0.089,16.199c0.279,2.281-0.617,2.977-2.901,2.955
		c-11.565-0.1-26.381-0.053-37.947-0.043v5.811c4.834-0.006,17.803-0.006,17.803-0.006l7.345,6.547l-25.147,0.127v16.604
		l40.521,0.021l5.229,4.584l-45.75-0.029v16.158l140.432-0.1L577.961,453.82z M507.925,437.18l22.903-0.35l10.117,7.131
		l-25.532,0.088L507.925,437.18z M530.175,458.576l41.041,0.02l9.051,5.195l-44.567,0.297L530.175,458.576z"/>
	<path fill="#7F7F7F" d="M445.395,425.789c-6.754-8.639-22.912-10.602-32.426-1.404l-0.048-21.979h-14.127
		c-0.021,22.385-0.044,44.072-0.054,66.459h14.229v-6.279c3.432,3.537,11.236,6.338,15.547,6.51
		c3.565,0.143,7.617-1.484,10.773-3.432c8.24-5.084,11.68-13.277,11.718-22.584C451.032,436.922,449.352,430.85,445.395,425.789
		 M431.156,454.658c-5.79,4.082-13.7,2.094-16.79-4.459c-2.375-5.039-2.379-13.295,2.927-17.873
		c5.083-4.387,13.392-3.395,16.771,2.426c0,0,2.243,4.529,2.349,8.332C436.663,447.855,435.053,451.914,431.156,454.658"/>
	<path fill="#7F7F7F" d="M315.623,455.162c-1.98,0.006-3.225-0.801-3.171-2.83l0.087-49.422l-14.219,0.057
		c-0.005,19.873,0.007,42.885-0.023,62.758c-0.003,1.566,0.565,2.188,2.137,2.184c14.296-0.025,30.212-0.117,44.506-0.09v-12.561
		L315.623,455.162z"/>
	<path fill="#7F7F7F" d="M392.036,468.865l-0.077-29.338c-0.07-3.053-0.546-6.193-1.438-9.111
		c-2.697-8.826-9.335-11.721-17.283-12.736c-6.462-0.822-12.849,0.037-19.222,2.596c-1.897,0.76-2.508,2.83-2.117,4.838
		c0.367,1.887,0.89,2.934,1.19,4.389c0.539,2.596,1.793,2.732,3.394,2.088c4.662-1.871,9.21-1.285,13.836-1.385
		c1.07-0.023,2.047,0.121,2.912,0.42c4.195,1.443,2.742,7.682-1.685,7.375c-0.031-0.002-0.062-0.002-0.094-0.006
		c-3.126-0.191-6.305-0.508-9.41-0.061c-4.021,0.58-7.734,1.92-10.93,4.457c-3.266,2.594-4.37,6.283-5.001,10.127
		c0,0-2.208,11.98,11.915,15.734c5.375,1.428,10.248,0.762,14.997-1.869c0.14-0.078,5.406-3.275,5.406-3.275l0.005,5.752
		L392.036,468.865z M377.358,454.219c-2.146,4.557-11.759,6.373-15.409,2.914c-3.071-2.91-1.846-8.609,2.213-9.77
		c0,0,5.796-1.596,9.509-0.514C378.573,448.279,379.538,449.592,377.358,454.219"/>
</g>
</svg>
