<svg xmlns="http://www.w3.org/2000/svg" viewBox="0 0 2101.97 487.49"><defs><style>.cls-1{fill:#fff;}.cls-2{fill:gray;}</style></defs><g id="Capa_2" data-name="Capa 2"><g id="Capa_1-2" data-name="Capa 1"><path class="cls-1" d="M0,249.38V65.54H48.13V196.82L127.58,93.08s18.7-25.68,31-25.68H200S74.92,238.62,72.72,241.91s-7.42,7.47-15.66,7.47Z"/><rect class="cls-1" x="227.71" y="67.75" width="51.49" height="181.44"/><polygon class="cls-1" points="309.4 65.92 309.78 87.2 351.56 87.2 351.56 249.58 402.25 249.58 402.25 86.4 444.06 86.4 444.06 65.92 309.4 65.92"/><path class="cls-1" d="M474.81,66.65V249.78h49.57V162.85h41.09s5.91,0,15.64,14.53,79.81,109.33,79.81,109.33,13.41,20.17,33.18,20.17h852.32V286.39H745.56s-18.61,2.21-32.4-12.71C699,258.34,627.74,164,627.74,164c54.79-3.37,60.07-89.15,3-96.61-9.68-.74-155.92-.74-155.92-.74m49.57,17.12H589c43.62,0,43.62,66.43,0,66.43H524.38Z"/><path class="cls-1" d="M839.94,64H775.82c-41.42,0-75.36,34.32-75.36,75.78v36.91c0,41.76,33.94,75.71,75.36,75.71h64.12a75.78,75.78,0,0,0,75.73-75.71V139.78c0-41.46-33.94-75.78-75.73-75.78m23.54,109c0,31.31-17.52,57-39.12,57H790.71c-21.62,0-39.5-25.73-39.5-57V145c0-31.35,17.88-57.05,39.5-57.05h33.65c21.6,0,39.12,25.7,39.12,57.05Z"/><path class="cls-2" d="M982.12,10.3H1035V202.52h119.8v48H982.12Z"/><path class="cls-2" d="M1158.55,197.71V197c0-40.16,30.55-58.7,74.14-58.7a130.72,130.72,0,0,1,45,7.55v-3.09c0-21.62-13.38-33.64-39.47-33.64-19.9,0-34,3.78-50.8,10l-13-39.82c20.25-8.92,40.16-14.76,71.39-14.76,28.49,0,49.09,7.55,62.14,20.6,13.72,13.73,19.9,34,19.9,58.69V250.57h-50.46v-19.9c-12.7,14.07-30.2,23.34-55.6,23.34C1187,254,1158.55,234.1,1158.55,197.71Zm119.8-12v-9.27a80.93,80.93,0,0,0-33.3-6.86c-22.32,0-36,8.92-36,25.4v.68c0,14.08,11.67,22.31,28.49,22.31C1261.87,218,1278.35,204.58,1278.35,185.7Z"/><path class="cls-2" d="M1405.35,226.55v24h-52.18V0h52.18V93c12.7-17.16,30.2-29.86,57.32-29.86,42.9,0,83.75,33.64,83.75,95.08v.69c0,61.44-40.16,95.08-83.75,95.08C1434.87,254,1417.7,241.31,1405.35,226.55Zm88.89-67.62v-.69c0-30.55-20.59-50.8-45-50.8s-44.63,20.25-44.63,50.8v.69c0,30.55,20.26,50.8,44.63,50.8S1494.24,189.82,1494.24,158.93Z"/><path class="cls-1" d="M982.85,359.74h43.84c10.79,0,19.29,3,24.68,8.36a21.64,21.64,0,0,1,6.48,16v.27c0,10.65-5.67,16.59-12.41,20.37,10.93,4.18,17.66,10.52,17.66,23.2v.27c0,17.27-14,25.9-35.33,25.9H982.85Zm39.38,38.17c9.18,0,15-3,15-10v-.27c0-6.2-4.86-9.71-13.63-9.71h-20.5v20Zm5.54,38c9.17,0,14.7-3.24,14.7-10.25v-.27c0-6.34-4.72-10.26-15.38-10.26h-24V436Z"/><path class="cls-1" d="M1095.06,416.93l-36.28-57.19h24.28l22.53,37.9,22.93-37.9h23.6l-36.28,56.79v37.63h-20.78Z"/><path class="cls-1" d="M1210.09,457.25v-96.7h25.32V429.6L1277.19,375s9.85-13.52,16.3-13.52h21.78s-65.77,90.07-66.93,91.79a9.8,9.8,0,0,1-8.24,3.94Z"/><rect class="cls-1" x="1329.87" y="361.71" width="27.08" height="95.44"/><polygon class="cls-1" points="1372.84 360.75 1373.04 371.94 1395.02 371.94 1395.02 457.35 1421.67 457.35 1421.67 371.52 1443.67 371.52 1443.67 360.75 1372.84 360.75"/><path class="cls-1" d="M1459.84,361.13v96.33h26.08V411.73h21.61s3.11,0,8.23,7.65,42,57.5,42,57.5,7,10.61,17.45,10.61h477.14V476.72H1602.26a21.43,21.43,0,0,1-17-6.7c-7.47-8-44.93-57.68-44.93-57.68,28.82-1.78,31.59-46.9,1.57-50.83-5.1-.38-82-.38-82-.38m26.08,9h34c22.94,0,22.94,34.95,0,34.95h-34Z"/><path class="cls-1" d="M1651.9,359.74h-33.73a40,40,0,0,0-39.64,39.85V419a39.82,39.82,0,0,0,39.64,39.82h33.73A39.86,39.86,0,0,0,1691.74,419V399.59a40,40,0,0,0-39.84-39.85m12.39,57.32c0,16.47-9.22,30-20.58,30H1626c-11.38,0-20.78-13.53-20.78-30V402.31c0-16.48,9.4-30,20.78-30h17.7c11.36,0,20.58,13.53,20.58,30Z"/><polygon class="cls-1" points="2027.79 361.13 2001.04 394.39 1974.41 361.13 1951.07 361.13 1989.26 408.44 1949.76 457.06 1973.1 457.06 2001.25 422.48 2029.08 457.06 2052.43 457.06 2012.91 408.44 2051.14 361.13 2027.79 361.13"/><path class="cls-1" d="M1883.9,403.52h51.42v8.82H1883.9V426a21.67,21.67,0,0,0,21.61,21.8H1936v9.42h-50a26.9,26.9,0,0,1-26.86-26.88V361.32h76.15v8.8H1883.9Z"/><path class="cls-1" d="M1707.24,361.13h21.41c9.4.78,8.82,2.93,14.47,11.17L1775.54,419l32.15-46.71c5.7-8.24,5.07-10.39,14.48-11.17h21.39v96.12h-21.39V391.93l-46.63,63.18-46.89-63.18v65.32h-21.41Z"/><path class="cls-1" d="M2089.41,361.13a12.8,12.8,0,0,1,6.2,1.61,11.69,11.69,0,0,1,4.66,4.64,12.63,12.63,0,0,1,0,12.59,12,12,0,0,1-4.65,4.65,12.7,12.7,0,0,1-12.52,0,11.73,11.73,0,0,1-4.64-4.65,12.6,12.6,0,0,1,0-12.59,11.62,11.62,0,0,1,4.66-4.64,12.82,12.82,0,0,1,6.22-1.61m0,2.47a10.3,10.3,0,0,0-5,1.29,9.31,9.31,0,0,0-3.75,3.74,10.17,10.17,0,0,0,0,10.11,9.79,9.79,0,0,0,3.73,3.77,10.24,10.24,0,0,0,10.06,0,9.72,9.72,0,0,0,3.73-3.77,10.13,10.13,0,0,0,1.35-5,10.28,10.28,0,0,0-1.36-5.07,9.48,9.48,0,0,0-3.77-3.74,10.39,10.39,0,0,0-5-1.29m-5.7,16.85V367.09h2.72c2.53,0,3.95,0,4.26,0a5.51,5.51,0,0,1,2.09.53A3.31,3.31,0,0,1,2094,369a3.63,3.63,0,0,1,.51,1.9,3.46,3.46,0,0,1-.95,2.46,4.15,4.15,0,0,1-2.64,1.28,3.83,3.83,0,0,1,.92.5,6.22,6.22,0,0,1,.92,1c.09.12.42.66,1,1.61l1.57,2.71H2092l-1.12-2.18a8.79,8.79,0,0,0-1.87-2.75,2.93,2.93,0,0,0-1.85-.56h-.71v5.49Zm2.72-7.6h1.09a12.64,12.64,0,0,0,2.92-.19,1.7,1.7,0,0,0,1.21-1.64,1.72,1.72,0,0,0-.31-1,1.9,1.9,0,0,0-.91-.62,13.42,13.42,0,0,0-2.91-.19h-1.09Z"/><path class="cls-2" d="M1988.61,195.29V4.06h-16.49V186.74l-67.39-34.9V4.06h-16.49V143.29l-61.77-32V4.06H1810v98.69l-62.25-32.24h-.22V4.06H1731V70.51H1580.2V93h78.15l17.32,22.93H1580.2v61.3h157.24l16.84,18.25H1580.2V254H2102ZM1743,154.74l-19.19-22.46h97.81l33.69,22.46Zm61.77,56.62h168.94l37.9,22.46H1823.06Z"/></g></g></svg>