<?xml version="1.0" encoding="utf-8"?>
<!-- Generator: Adobe Illustrator 16.0.0, SVG Export Plug-In . SVG Version: 6.00 Build 0)  -->
<!DOCTYPE svg PUBLIC "-//W3C//DTD SVG 1.1//EN" "http://www.w3.org/Graphics/SVG/1.1/DTD/svg11.dtd">
<svg version="1.1" id="Capa_1" xmlns="http://www.w3.org/2000/svg" xmlns:xlink="http://www.w3.org/1999/xlink" x="0px" y="0px"
	 width="105px" height="23.258px" viewBox="0 0 105 23.258" enable-background="new 0 0 105 23.258" xml:space="preserve">
<g>
	<path fill="#FFFFFF" d="M0,11.294V-0.139h2.994v8.164l4.94-6.451c0,0,1.164-1.597,1.926-1.597h2.576c0,0-7.776,10.648-7.913,10.853
		c-0.136,0.202-0.462,0.465-0.973,0.465H0z"/>
	<rect x="14.161" y="-0.001" fill="#FFFFFF" width="3.202" height="11.282"/>
	<polygon fill="#FFFFFF" points="19.241,-0.115 19.265,1.208 21.863,1.208 21.863,11.307 25.016,11.307 25.016,1.159 27.615,1.159 
		27.615,-0.115 	"/>
	<path fill="#FFFFFF" d="M29.528-0.069v11.389h3.082V5.913h2.555c0,0,0.368,0,0.974,0.903c0.6,0.904,4.962,6.799,4.962,6.799
		s0.834,1.254,2.063,1.254h56.41v-1.273H46.366c0,0-1.157,0.139-2.016-0.791c-0.881-0.953-5.312-6.821-5.312-6.821
		c3.408-0.208,3.736-5.543,0.186-6.007C38.622-0.069,29.528-0.069,29.528-0.069 M32.61,0.995h4.016c2.713,0,2.713,4.132,0,4.132
		H32.61V0.995z"/>
	<path fill="#FFFFFF" d="M52.234-0.234h-3.988c-2.576,0-4.687,2.135-4.687,4.712v2.296c0,2.597,2.111,4.708,4.687,4.708h3.988
		c2.599,0,4.711-2.111,4.711-4.708V4.478C56.945,1.9,54.833-0.234,52.234-0.234 M53.698,6.543c0,1.947-1.089,3.547-2.432,3.547
		h-2.093c-1.345,0-2.457-1.6-2.457-3.547V4.801c0-1.95,1.111-3.549,2.457-3.549h2.093c1.343,0,2.432,1.599,2.432,3.549V6.543z"/>
	<polygon fill="#FFFFFF" points="96.674,-0.069 93.514,3.863 90.363,-0.069 87.604,-0.069 92.12,5.523 87.45,11.273 90.21,11.273 
		93.536,7.184 96.828,11.273 99.588,11.273 94.917,5.523 99.436,-0.069 	"/>
	<polygon fill="#FFFFFF" points="31.901,23.249 31.263,23.249 30.271,18.515 30.271,23.259 29.69,23.259 29.69,17.308 30.62,17.308 
		31.604,22.059 32.552,17.308 33.481,17.308 33.481,23.259 32.851,23.259 32.851,18.472 	"/>
	<rect x="35.011" y="17.309" fill="#FFFFFF" width="0.666" height="5.95"/>
	<polygon fill="#FFFFFF" points="41.5,19.942 41.5,20.537 40.04,20.537 40.04,22.655 41.833,22.655 41.833,23.259 39.375,23.259 
		39.375,17.307 41.833,17.307 41.833,17.91 40.04,17.91 40.04,19.942 	"/>
	<path fill="#FFFFFF" d="M45.88,18.735v0.161h-0.631v-0.194c0-0.537-0.205-0.851-0.683-0.851s-0.683,0.313-0.683,0.84
		c0,1.336,2.008,1.464,2.008,3.138c0,0.902-0.436,1.488-1.351,1.488c-0.914,0-1.341-0.586-1.341-1.488v-0.34h0.624v0.374
		c0,0.535,0.223,0.851,0.7,0.851c0.479,0,0.702-0.315,0.702-0.851c0-1.326-1.999-1.453-1.999-3.128c0-0.918,0.427-1.488,1.323-1.488
		C45.455,17.247,45.88,17.834,45.88,18.735"/>
	<path fill="#FFFFFF" d="M48.622,17.307c0.939,0,1.341,0.553,1.341,1.454v0.714c0,0.944-0.444,1.437-1.392,1.437h-0.589v2.347
		h-0.667v-5.951H48.622z M48.571,20.316c0.495,0,0.734-0.23,0.734-0.799v-0.791c0-0.545-0.197-0.816-0.683-0.816h-0.64v2.406H48.571
		z"/>
	<path fill="#FFFFFF" d="M51.893,22.059l-0.231,1.199h-0.614l1.144-5.949h0.966l1.144,5.949h-0.666l-0.23-1.199H51.893z
		 M51.979,21.49h1.332l-0.675-3.436L51.979,21.49z"/>
	<path fill="#FFFFFF" d="M58.297,18.743v0.536h-0.633V18.71c0-0.536-0.213-0.858-0.698-0.858c-0.48,0-0.702,0.322-0.702,0.858v3.145
		c0,0.537,0.222,0.859,0.702,0.859c0.485,0,0.698-0.322,0.698-0.859v-0.772h0.633v0.738c0,0.902-0.426,1.497-1.349,1.497
		c-0.914,0-1.342-0.595-1.342-1.497v-3.077c0-0.9,0.428-1.496,1.342-1.496C57.871,17.247,58.297,17.843,58.297,18.743"/>
	<rect x="59.749" y="17.309" fill="#FFFFFF" width="0.665" height="5.95"/>
	<path fill="#FFFFFF" d="M61.892,18.743c0-0.909,0.452-1.496,1.366-1.496c0.922,0,1.375,0.587,1.375,1.496v3.077
		c0,0.902-0.453,1.497-1.375,1.497c-0.914,0-1.366-0.595-1.366-1.497V18.743z M62.55,21.854c0,0.544,0.231,0.858,0.708,0.858
		c0.486,0,0.709-0.314,0.709-0.858V18.71c0-0.536-0.223-0.858-0.709-0.858c-0.477,0-0.708,0.322-0.708,0.858V21.854z"/>
	<polygon fill="#FFFFFF" points="66.067,22.433 66.067,23.257 66.315,23.257 66.102,24.007 66.376,24.007 66.707,23.198 
		66.707,22.433 	"/>
	<polygon fill="#FFFFFF" points="72.608,23.249 71.968,23.249 70.978,18.515 70.978,23.259 70.397,23.259 70.397,17.308 
		71.327,17.308 72.31,22.059 73.259,17.308 74.188,17.308 74.188,23.259 73.558,23.259 73.558,18.472 	"/>
	<rect x="75.718" y="17.309" fill="#FFFFFF" width="0.666" height="5.95"/>
	<polygon fill="#FFFFFF" points="81.059,23.249 80.418,23.249 79.427,18.515 79.427,23.259 78.847,23.259 78.847,17.308 
		79.776,17.308 80.758,22.059 81.708,17.308 82.638,17.308 82.638,23.259 82.007,23.259 82.007,18.472 	"/>
	<path fill="#FFFFFF" d="M84.798,21.854c0,0.537,0.214,0.859,0.7,0.859c0.478,0,0.692-0.322,0.692-0.859v-4.548h0.623v4.514
		c0,0.902-0.419,1.506-1.341,1.506c-0.914,0-1.332-0.604-1.332-1.506v-4.514h0.657V21.854z"/>
	<polygon fill="#FFFFFF" points="88.905,23.258 88.308,23.258 88.308,17.308 89.152,17.308 90.536,21.609 90.536,17.308 
		91.125,17.308 91.125,23.258 90.434,23.258 88.905,18.446 	"/>
	<path fill="#FFFFFF" d="M94.055,17.307c0.93,0,1.358,0.562,1.358,1.479v3.001c0,0.91-0.429,1.471-1.358,1.471h-1.401v-5.951H94.055
		z M94.046,22.655c0.479,0,0.708-0.299,0.708-0.842v-3.062c0-0.544-0.229-0.842-0.717-0.842H93.32v4.745H94.046z"/>
	<path fill="#FFFFFF" d="M96.83,18.743c0-0.909,0.451-1.496,1.366-1.496c0.921,0,1.375,0.587,1.375,1.496v3.077
		c0,0.902-0.454,1.497-1.375,1.497c-0.915,0-1.366-0.595-1.366-1.497V18.743z M97.487,21.854c0,0.544,0.232,0.858,0.709,0.858
		c0.487,0,0.709-0.314,0.709-0.858V18.71c0-0.536-0.222-0.858-0.709-0.858c-0.477,0-0.709,0.322-0.709,0.858V21.854z"/>
	<path fill="#FFFFFF" d="M79.663,4.941h6.08v1.043h-6.08v1.62c0,1.419,1.133,2.577,2.556,2.577h3.604v1.113h-5.908
		c-1.741,0-3.176-1.415-3.176-3.176v-8.166h1.372h1.552h6.08v1.041h-6.08V4.941z"/>
	<path fill="#FFFFFF" d="M58.776-0.069h2.53c1.113,0.092,1.044,0.346,1.713,1.321l3.831,5.521l3.802-5.521
		c0.675-0.975,0.601-1.229,1.712-1.321h2.53v11.363h-2.53V3.571l-5.514,7.469l-5.544-7.469v7.723h-2.53V-0.069z"/>
	<path fill="#FFFFFF" d="M103.958-0.07c0.256,0,0.5,0.063,0.734,0.19c0.235,0.129,0.418,0.311,0.553,0.549
		c0.133,0.239,0.2,0.487,0.2,0.747c0,0.26-0.066,0.506-0.197,0.742c-0.131,0.234-0.314,0.417-0.55,0.549
		c-0.233,0.131-0.479,0.196-0.74,0.196c-0.258,0-0.505-0.065-0.739-0.196c-0.235-0.132-0.419-0.314-0.549-0.549
		c-0.131-0.235-0.197-0.481-0.197-0.742c0-0.259,0.066-0.508,0.201-0.747c0.133-0.238,0.316-0.42,0.551-0.549
		C103.459-0.007,103.704-0.07,103.958-0.07 M103.961,0.223c-0.206,0-0.4,0.05-0.589,0.152s-0.336,0.249-0.442,0.441
		c-0.109,0.19-0.162,0.392-0.162,0.6s0.052,0.407,0.158,0.596c0.104,0.189,0.252,0.337,0.44,0.444
		c0.188,0.104,0.388,0.158,0.595,0.158c0.208,0,0.407-0.054,0.595-0.158c0.188-0.107,0.336-0.255,0.441-0.444
		c0.106-0.189,0.159-0.388,0.159-0.596s-0.055-0.41-0.162-0.6c-0.107-0.192-0.256-0.339-0.444-0.441S104.164,0.223,103.961,0.223
		 M103.287,2.214V0.635h0.32c0.3,0,0.468,0.002,0.505,0.004c0.106,0.009,0.189,0.03,0.247,0.063
		c0.061,0.033,0.108,0.084,0.146,0.152c0.04,0.067,0.061,0.143,0.061,0.225c0,0.114-0.037,0.211-0.112,0.292
		c-0.074,0.081-0.178,0.131-0.312,0.15c0.047,0.019,0.083,0.039,0.108,0.059c0.027,0.022,0.063,0.064,0.108,0.123
		c0.011,0.016,0.049,0.079,0.116,0.191l0.186,0.319h-0.396l-0.133-0.256c-0.087-0.174-0.161-0.281-0.221-0.327
		c-0.059-0.045-0.131-0.066-0.22-0.066h-0.084v0.648H103.287z M103.607,1.316h0.131c0.185,0,0.299-0.007,0.345-0.022
		c0.044-0.014,0.079-0.039,0.104-0.075c0.027-0.035,0.04-0.075,0.04-0.121c0-0.043-0.013-0.083-0.037-0.118
		c-0.025-0.034-0.062-0.059-0.107-0.074c-0.048-0.014-0.162-0.022-0.344-0.022h-0.131V1.316z"/>
</g>
</svg>
