<?xml version="1.0" encoding="utf-8"?>
<!-- Generator: Adobe Illustrator 16.0.0, SVG Export Plug-In . SVG Version: 6.00 Build 0)  -->
<!DOCTYPE svg PUBLIC "-//W3C//DTD SVG 1.1//EN" "http://www.w3.org/Graphics/SVG/1.1/DTD/svg11.dtd">
<svg version="1.1" id="Capa_1" xmlns="http://www.w3.org/2000/svg" xmlns:xlink="http://www.w3.org/1999/xlink" x="0px" y="0px"
	 width="612px" height="148.816px" viewBox="0 0 612 148.816" enable-background="new 0 0 612 148.816" xml:space="preserve">
<g>
	<path fill="#FFFFFF" d="M256.814,22.108c0.046-11-6.761-19.878-17.529-22.106h-24.889c-8.361,1.645-15.418,8.903-16.928,17.339
		c-0.97,5.413-0.609,10.927-0.292,16.378c0.582,9.998,9.64,18.667,19.684,18.897c6.643,0.152,13.294,0.141,19.938,0.006
		c9.626-0.194,18.301-7.949,19.724-17.46C257.172,30.826,256.796,26.458,256.814,22.108 M241.203,37.601
		c-0.768,2.175-1.819,4.173-3.414,5.858c-1.88,1.991-4.156,3.049-6.931,3.015c-2.709-0.032-5.42-0.038-8.129,0.001
		c-2.966,0.044-5.353-1.145-7.281-3.319c-2.283-2.579-3.682-5.63-3.982-9.021c-0.496-5.6-0.808-11.229,0.367-16.798
		c0.487-2.307,1.493-4.419,2.945-6.284c2.067-2.656,4.655-4.243,8.181-4.092c2.6,0.112,5.208,0.095,7.809,0.005
		c3.195-0.108,5.641,1.244,7.59,3.634c2.885,3.533,3.875,7.708,3.982,12.156c0.031,1.327,0.004,2.655,0.004,4.523
		C242.38,30.402,242.45,34.067,241.203,37.601"/>
	<path fill="#FFFFFF" d="M0,0.667C3.878,0.684,7.757,0.76,11.633,0.681c1.391-0.027,1.857,0.256,1.848,1.773
		c-0.074,11.422-0.04,22.845-0.04,34.296c0.66,0.046,0.767-0.523,1.022-0.856c6.959-9.053,13.905-18.115,20.854-27.178
		c0.517-0.675,1.063-1.325,1.574-2.007c2.925-3.896,6.156-5.435,11.689-5.488c2.242-0.021,4.525,0.056,7.037,0.056
		c-0.614,0.863-1.084,1.542-1.571,2.208C42.909,18.756,31.767,34.024,20.64,49.305c-0.952,1.308-2.097,2.354-3.749,2.402
		C11.262,51.877,5.63,51.925,0,51.692V0.667z"/>
	<path fill="#FFFFFF" d="M470.578,10.872c-0.926-0.503-0.761,0.479-0.945,0.785c-1.436,2.377-3.513,3.661-6.272,3.667
		c-2.694,0.006-4.812-1.182-6.182-3.524c-2.01-3.438-0.808-7.9,2.596-9.806c3.628-2.029,7.979-0.715,9.95,2.949
		c0.156,0.287-0.034,1.207,0.854,0.826L470.578,10.872L470.578,10.872z M469.072,8.208c0.002-3.261-2.492-5.743-5.752-5.729
		c-3.223,0.017-5.787,2.615-5.729,5.803c0.061,3.11,2.624,5.67,5.717,5.701C466.484,14.015,469.071,11.424,469.072,8.208"/>
	<path fill="#FFFFFF" d="M176.87,28.209c3.029,3.978,5.923,7.829,8.876,11.639c4.363,5.625,8.825,11.174,13.134,16.839
		c2.978,3.913,6.761,5.509,11.693,5.504c79.642-0.071,159.285-0.046,238.926-0.088c1.535-0.001,1.817,0.479,1.787,1.865
		c-0.085,3.855-0.026,3.856-3.919,3.856c-83.418,0-166.834-0.021-250.251,0.052c-4.786,0.004-8.289-1.866-11.002-5.551
		c-7.558-10.266-15.22-20.452-22.55-30.883c-0.427-0.608-0.894-1.189-1.376-1.756c-1.12-1.312-2.424-2.054-4.287-1.947
		c-2.756,0.153-5.529,0.098-8.291,0.013c-1.206-0.036-1.608,0.236-1.595,1.538c0.072,7.017-0.002,14.03,0.065,21.044
		c0.013,1.311-0.297,1.706-1.645,1.668c-3.612-0.1-7.229-0.072-10.844-0.01c-1.057,0.021-1.324-0.296-1.322-1.334
		c0.032-16.104,0.036-32.205-0.006-48.309c-0.003-1.2,0.434-1.354,1.469-1.348c13.398,0.071,26.796-0.031,40.192,0.229
		c8.38,0.161,14.007,6.721,12.873,15.049c-0.881,6.473-4.713,10.511-11.166,11.767C177.446,28.083,177.261,28.126,176.87,28.209
		 M157.961,24.267c2.765,0,5.53,0.033,8.293-0.009c5.138-0.076,8.805-3.866,8.864-9.106c0.059-5.235-3.526-9.217-8.646-9.322
		c-5.793-0.12-11.589-0.017-17.384-0.056c-0.872-0.007-1.058,0.302-1.054,1.104c0.029,5.421,0.036,10.842-0.006,16.263
		c-0.006,0.913,0.26,1.168,1.161,1.15C152.112,24.236,155.037,24.271,157.961,24.267"/>
	<path fill="#FFFFFF" d="M301.079,31.641c0.495-0.693,0.834-1.158,1.16-1.633c5.972-8.711,11.979-17.396,17.882-26.154
		c1.437-2.13,3.447-2.737,5.735-2.797c3.398-0.089,6.807,0.022,10.204-0.053c1.408-0.031,1.036,0.889,1.037,1.598
		c0.016,13.394,0.012,26.785,0.012,40.178c0,2.604-0.049,5.209,0.021,7.812c0.026,1.004-0.305,1.265-1.271,1.244
		c-2.925-0.058-5.853-0.083-8.771,0.01c-1.198,0.038-1.354-0.415-1.352-1.457c0.037-10.364,0.021-20.729,0.021-31.093v-1.949
		c-3.622,4.903-6.977,9.452-10.336,13.998c-4.448,6.021-8.923,12.024-13.326,18.079c-0.761,1.046-1.094,1.159-1.921,0.037
		c-7.591-10.302-15.238-20.562-22.876-30.83c-0.236-0.317-0.364-0.758-0.978-0.903v1.573c0,10.312-0.03,20.619,0.036,30.932
		c0.008,1.365-0.367,1.667-1.666,1.616c-2.761-0.105-5.529-0.065-8.292-0.015c-0.962,0.021-1.37-0.13-1.367-1.26
		c0.042-16.104,0.026-32.206,0.04-48.31c0-0.503-0.307-1.269,0.708-1.238c3.981,0.116,7.968-0.209,11.948,0.194
		c2.031,0.207,3.352,1.291,4.468,2.927C288.417,13.269,294.69,22.352,301.079,31.641"/>
	<path fill="#FFFFFF" d="M424.106,18.719c4.433-5.516,8.771-10.885,13.064-16.291c0.714-0.898,1.427-1.354,2.647-1.315
		c3.443,0.1,6.896,0.034,10.358,0.034c0.159,0.65-0.352,0.896-0.62,1.229c-6.095,7.575-12.181,15.157-18.338,22.683
		c-0.747,0.915-0.64,1.375,0.043,2.207c6.398,7.808,12.748,15.651,19.111,23.487c0.195,0.239,0.377,0.488,0.665,0.86
		c-0.852,0.34-1.635,0.188-2.387,0.193c-2.818,0.021-5.64-0.029-8.454,0.027c-0.944,0.021-1.546-0.281-2.139-1.022
		c-4.266-5.363-8.604-10.671-12.854-16.047c-0.779-0.985-1.135-1.119-1.986-0.051c-4.306,5.399-8.714,10.72-13.041,16.104
		c-0.596,0.741-1.197,1.029-2.139,1.018c-3.561-0.05-7.12-0.021-10.778-0.021c0.158-0.744,0.681-1.143,1.059-1.605
		c6.188-7.634,12.38-15.271,18.611-22.868c0.727-0.882,0.817-1.413,0.035-2.369c-6.39-7.812-12.707-15.678-19.062-23.544
		c0.479-0.509,1.037-0.264,1.518-0.268c3.03-0.027,6.062,0.039,9.092-0.042c1.141-0.029,1.818,0.372,2.514,1.25
		C415.307,7.788,419.646,13.156,424.106,18.719"/>
	<path fill="#FFFFFF" d="M366.735,1.147c6.166,0,12.331,0.037,18.496-0.031c1.217-0.015,1.5,0.315,1.473,1.497
		c-0.074,3.177-0.014,3.178-3.236,3.178c-7.494,0-14.985,0.027-22.479-0.026c-1.16-0.011-1.521,0.229-1.499,1.456
		c0.08,4.888,0.068,9.775,0.005,14.663c-0.02,1.201,0.238,1.594,1.532,1.58c7.972-0.063,15.942-0.003,23.917-0.062
		c1.32-0.011,1.846,0.189,1.772,1.688c-0.14,3.005-0.038,3.011-3.095,3.011c-7.547,0-15.095,0.024-22.645-0.027
		c-1.152-0.009-1.575,0.213-1.484,1.452c0.202,2.746-0.3,5.533,0.296,8.259c1.183,5.407,5.646,9.04,11.167,9.089
		c4.941,0.044,9.886,0.032,14.829-0.01c0.919-0.01,1.27,0.138,1.27,1.185c0.002,3.771,0.054,3.771-3.772,3.771
		c-7.334,0-14.669,0.015-22.004-0.006c-8.807-0.023-14.817-6.031-14.824-14.796c-0.008-11.424,0.021-22.847-0.036-34.27
		c-0.007-1.351,0.354-1.648,1.666-1.635C354.297,1.188,360.517,1.147,366.735,1.147"/>
	<path fill="#FFFFFF" d="M87.4,0.868v5.896c3.028-0.052,7.024,0.038,10.05-0.05c1.167-0.033,1.506,0.233,1.495,1.458
		c-0.066,7.063-0.033,14.131-0.033,21.194c0,6.959,0.034,13.918-0.031,20.877c-0.011,1.273,0.221,1.76,1.616,1.688
		c2.545-0.126,5.102,0,7.651-0.05c1.579-0.03,3.681,0.688,4.58-0.309c0.779-0.859,0.251-2.93,0.252-4.464
		c0.008-13.018,0.023-26.029-0.025-39.045c-0.004-1.265,0.323-1.645,1.583-1.576c2.014,0.105,7.538,0.028,9.557,0.028V0.829
		C113.732,0.886,97.763,0.859,87.4,0.868"/>
	<path fill="#FFFFFF" d="M78.802,26.489c0,7.967-0.024,15.934,0.027,23.897c0.007,1.109-0.265,1.412-1.387,1.393
		c-3.877-0.075-7.757-0.059-11.635-0.012c-0.962,0.013-1.369-0.131-1.367-1.264c0.042-15.985,0.039-31.973,0.007-47.957
		c-0.002-0.986,0.258-1.25,1.241-1.235c3.984,0.058,7.97,0.065,11.954-0.005c1.069-0.021,1.181,0.388,1.177,1.283
		C78.789,10.557,78.802,18.524,78.802,26.489"/>
	<path fill="#FFFFFF" d="M466.552,11.888c-1.229,0.429-1.952,0.074-2.346-1.02c-0.124-0.342-0.354-0.649-0.55-0.963
		c-0.389-0.618-0.922-1.18-1.67-0.919c-0.712,0.245-0.206,1.009-0.328,1.524c-0.061,0.253-0.022,0.528-0.008,0.794
		c0.027,0.516-0.139,0.769-0.72,0.76c-0.598-0.007-0.858-0.188-0.854-0.818c0.022-2.017,0.021-4.03,0-6.047
		c-0.006-0.553,0.202-0.756,0.741-0.741c0.848,0.022,1.695,0.019,2.547,0.006c1.222-0.019,2.381,0.084,2.782,1.531
		c0.312,1.144-0.095,1.833-1.601,2.761C465.386,9.641,465.992,10.667,466.552,11.888 M462.433,7.742
		c1.061-0.118,2.104,0.148,2.113-1.028c0.013-1.315-1.145-0.904-1.903-1.047c-0.896-0.166-0.983,0.317-1.021,1.069
		C461.579,7.656,461.982,7.83,462.433,7.742"/>
	<path fill="#7F7F7F" d="M577.961,132.231c-0.084-16.709-0.306-35.627-0.484-52.338h-3.628c-0.273,16.33-0.552,32.654-0.842,49.77
		l-17.659-8.834l-0.088-40.938h-3.688c-0.193,11.596-0.37,27.271-0.606,38.863l-16.104-8.809l0.188-30.057h-4.725
		c-0.183,8.164-0.363,19.301-0.544,27.465l-15.915-8.291l-0.063-19.174h-4.663l-0.089,16.195c0.279,2.281-0.615,2.98-2.898,2.955
		c-11.565-0.1-26.382-0.053-37.947-0.043v5.812c4.834-0.008,17.803-0.008,17.803-0.008l7.347,6.549l-25.146,0.127v16.604
		l40.521,0.021l5.229,4.584l-45.75-0.029v16.158l140.432-0.102L577.961,132.231z M507.925,115.588l22.903-0.35l10.117,7.131
		l-25.532,0.088L507.925,115.588z M530.175,136.987l41.041,0.02l9.051,5.195l-44.564,0.297L530.175,136.987z"/>
	<path fill="#7F7F7F" d="M445.395,104.199c-6.754-8.639-22.909-10.602-32.426-1.404l-0.048-21.979h-14.127
		c-0.021,22.385-0.044,44.068-0.054,66.459h14.229v-6.279c3.435,3.537,11.236,6.338,15.547,6.51
		c3.565,0.145,7.617-1.482,10.773-3.432c8.24-5.084,11.68-13.277,11.718-22.584C451.032,115.332,449.352,109.258,445.395,104.199
		 M431.156,133.069c-5.79,4.082-13.7,2.094-16.79-4.459c-2.375-5.039-2.379-13.295,2.927-17.873
		c5.083-4.387,13.392-3.396,16.771,2.426c0,0,2.24,4.529,2.349,8.332C436.663,126.266,435.053,130.324,431.156,133.069"/>
	<path fill="#7F7F7F" d="M315.623,133.573c-1.98,0.006-3.225-0.801-3.171-2.83l0.087-49.422l-14.219,0.057
		c-0.005,19.873,0.007,42.885-0.023,62.758c-0.003,1.566,0.565,2.189,2.137,2.186c14.296-0.025,30.212-0.117,44.506-0.09v-12.562
		L315.623,133.573z"/>
	<path fill="#7F7F7F" d="M392.036,147.276l-0.077-29.338c-0.07-3.057-0.546-6.193-1.438-9.111
		c-2.697-8.826-9.338-11.721-17.283-12.736c-6.462-0.82-12.852,0.037-19.225,2.598c-1.896,0.76-2.508,2.83-2.114,4.838
		c0.364,1.887,0.89,2.934,1.188,4.389c0.539,2.596,1.793,2.732,3.396,2.088c4.661-1.871,9.21-1.285,13.836-1.385
		c1.067-0.023,2.047,0.121,2.912,0.42c4.192,1.443,2.739,7.682-1.688,7.375c-0.031-0.002-0.062-0.002-0.094-0.006
		c-3.126-0.191-6.306-0.508-9.41-0.062c-4.021,0.58-7.734,1.924-10.93,4.457c-3.269,2.598-4.37,6.283-5.001,10.127
		c0,0-2.208,11.98,11.915,15.734c5.375,1.428,10.248,0.762,14.997-1.869c0.14-0.078,5.403-3.271,5.403-3.271l0.005,5.752
		L392.036,147.276z M377.358,132.629c-2.146,4.559-11.762,6.373-15.409,2.914c-3.071-2.91-1.849-8.607,2.213-9.77
		c0,0,5.796-1.6,9.509-0.518C378.573,126.69,379.538,128.002,377.358,132.629"/>
</g>
</svg>
