<?xml version="1.0" encoding="utf-8"?>
<!-- Generator: Adobe Illustrator 16.0.0, SVG Export Plug-In . SVG Version: 6.00 Build 0)  -->
<!DOCTYPE svg PUBLIC "-//W3C//DTD SVG 1.1//EN" "http://www.w3.org/Graphics/SVG/1.1/DTD/svg11.dtd">
<svg version="1.1" id="Capa_1" xmlns="http://www.w3.org/2000/svg" xmlns:xlink="http://www.w3.org/1999/xlink" x="0px" y="0px"
	 width="365.186px" height="89.287px" viewBox="121.729 29.764 365.186 89.287"
	 enable-background="new 121.729 29.764 365.186 89.287" xml:space="preserve">
<g>
	<path fill="#FFFFFF" d="M275.817,43.028c0.027-6.6-4.057-11.927-10.518-13.264h-14.933c-5.017,0.987-9.251,5.342-10.157,10.403
		c-0.582,3.248-0.365,6.557-0.175,9.827c0.35,5.999,5.784,11.2,11.811,11.339c3.986,0.091,7.977,0.084,11.963,0.003
		c5.775-0.117,10.981-4.77,11.834-10.476C276.032,48.259,275.806,45.637,275.817,43.028 M266.45,52.324
		c-0.461,1.305-1.091,2.503-2.048,3.514c-1.128,1.195-2.494,1.83-4.159,1.81c-1.625-0.02-3.252-0.023-4.877,0
		c-1.779,0.026-3.212-0.688-4.368-1.992c-1.37-1.547-2.209-3.378-2.39-5.413c-0.297-3.36-0.484-6.737,0.22-10.079
		c0.292-1.384,0.896-2.651,1.767-3.771c1.24-1.593,2.793-2.545,4.909-2.455c1.56,0.067,3.125,0.058,4.686,0.003
		c1.917-0.064,3.384,0.747,4.554,2.181c1.731,2.119,2.325,4.625,2.389,7.293c0.019,0.796,0.002,1.593,0.002,2.714
		C267.156,48.004,267.199,50.203,266.45,52.324"/>
	<path fill="#FFFFFF" d="M121.729,30.163c2.327,0.011,4.654,0.056,6.979,0.009c0.835-0.016,1.115,0.154,1.109,1.063
		c-0.044,6.854-0.024,13.707-0.024,20.578c0.396,0.028,0.46-0.313,0.613-0.513c4.175-5.432,8.343-10.869,12.512-16.307
		c0.311-0.405,0.638-0.794,0.945-1.204c1.755-2.337,3.693-3.261,7.013-3.292c1.345-0.013,2.715,0.033,4.222,0.033
		c-0.369,0.518-0.65,0.925-0.943,1.325c-6.682,9.162-13.367,18.323-20.043,27.492c-0.571,0.784-1.258,1.412-2.249,1.44
		c-3.377,0.102-6.757,0.131-10.135-0.009V30.163z"/>
	<path fill="#FFFFFF" d="M404.075,36.286c-0.556-0.302-0.456,0.288-0.567,0.471c-0.861,1.426-2.107,2.197-3.763,2.2
		c-1.616,0.003-2.888-0.709-3.71-2.115c-1.205-2.062-0.484-4.739,1.559-5.883c2.177-1.217,4.787-0.429,5.969,1.77
		c0.094,0.172-0.02,0.724,0.514,0.496L404.075,36.286L404.075,36.286z M403.172,34.688c0.001-1.957-1.496-3.446-3.451-3.437
		c-1.934,0.01-3.473,1.568-3.438,3.481c0.037,1.866,1.574,3.402,3.43,3.421C401.619,38.172,403.172,36.617,403.172,34.688"/>
	<path fill="#FFFFFF" d="M227.851,46.688c1.817,2.387,3.554,4.697,5.326,6.984c2.618,3.375,5.294,6.704,7.88,10.103
		c1.787,2.348,4.057,3.306,7.016,3.303c47.785-0.043,95.571-0.028,143.355-0.053c0.922-0.001,1.09,0.287,1.072,1.118
		c-0.051,2.313-0.016,2.314-2.352,2.314c-50.051,0-100.1-0.013-150.15,0.031c-2.872,0.002-4.973-1.12-6.602-3.331
		c-4.534-6.159-9.132-12.271-13.53-18.53c-0.256-0.365-0.536-0.713-0.826-1.053c-0.672-0.788-1.454-1.233-2.572-1.168
		c-1.653,0.092-3.317,0.059-4.975,0.007c-0.724-0.021-0.964,0.142-0.957,0.923c0.043,4.211-0.001,8.418,0.039,12.626
		c0.007,0.787-0.178,1.024-0.987,1.001c-2.167-0.06-4.337-0.043-6.506-0.006c-0.634,0.013-0.794-0.178-0.793-0.8
		c0.019-9.662,0.021-19.323-0.004-28.985c-0.002-0.72,0.26-0.812,0.881-0.809c8.039,0.042,16.078-0.018,24.115,0.138
		c5.028,0.097,8.404,4.032,7.724,9.029c-0.528,3.883-2.828,6.306-6.699,7.06C228.196,46.613,228.085,46.638,227.851,46.688
		 M216.505,44.323c1.659,0,3.318,0.019,4.976-0.006c3.083-0.045,5.283-2.319,5.318-5.463c0.035-3.141-2.116-5.53-5.188-5.593
		c-3.476-0.072-6.954-0.01-10.431-0.034c-0.523-0.004-0.635,0.181-0.632,0.662c0.018,3.253,0.021,6.505-0.004,9.758
		c-0.003,0.548,0.156,0.701,0.697,0.69C212.996,44.304,214.75,44.326,216.505,44.323"/>
	<path fill="#FFFFFF" d="M302.376,48.748c0.297-0.416,0.5-0.695,0.696-0.98c3.583-5.227,7.188-10.437,10.729-15.692
		c0.862-1.278,2.068-1.642,3.441-1.678c2.039-0.054,4.084,0.013,6.122-0.032c0.845-0.018,0.622,0.534,0.622,0.959
		c0.01,8.036,0.008,16.071,0.008,24.106c0,1.562-0.029,3.125,0.012,4.687c0.016,0.603-0.182,0.759-0.762,0.747
		c-1.756-0.035-3.512-0.05-5.264,0.006c-0.719,0.022-0.812-0.249-0.811-0.874c0.022-6.219,0.013-12.438,0.013-18.656v-1.169
		c-2.173,2.941-4.187,5.67-6.202,8.398c-2.668,3.613-5.353,7.215-7.995,10.848c-0.457,0.628-0.656,0.695-1.153,0.022
		c-4.554-6.181-9.143-12.337-13.726-18.498c-0.141-0.189-0.218-0.455-0.586-0.541v0.943c0,6.188-0.018,12.371,0.021,18.56
		c0.005,0.819-0.22,1-1,0.97c-1.657-0.063-3.317-0.04-4.975-0.01c-0.577,0.013-0.822-0.078-0.82-0.756
		c0.025-9.662,0.016-19.323,0.024-28.985c0-0.303-0.184-0.762,0.425-0.743c2.389,0.07,4.781-0.125,7.169,0.117
		c1.218,0.124,2.011,0.774,2.681,1.756C294.779,37.724,298.542,43.175,302.376,48.748"/>
	<path fill="#FFFFFF" d="M376.192,40.994c2.659-3.309,5.263-6.531,7.838-9.774c0.429-0.539,0.856-0.812,1.589-0.789
		c2.064,0.06,4.137,0.021,6.215,0.021c0.095,0.39-0.211,0.537-0.373,0.737c-3.656,4.545-7.309,9.095-11.002,13.61
		c-0.449,0.549-0.385,0.825,0.025,1.324c3.839,4.685,7.648,9.39,11.467,14.092c0.117,0.144,0.227,0.293,0.398,0.516
		c-0.512,0.204-0.98,0.113-1.432,0.116c-1.691,0.012-3.385-0.018-5.072,0.016c-0.566,0.013-0.928-0.168-1.283-0.613
		c-2.561-3.218-5.162-6.402-7.713-9.628c-0.467-0.591-0.681-0.672-1.191-0.031c-2.584,3.24-5.229,6.433-7.824,9.663
		c-0.357,0.445-0.719,0.618-1.283,0.611c-2.138-0.03-4.273-0.013-6.468-0.013c0.095-0.446,0.409-0.686,0.636-0.963
		c3.713-4.581,7.428-9.163,11.166-13.721c0.438-0.529,0.49-0.848,0.021-1.421c-3.834-4.688-7.625-9.407-11.438-14.127
		c0.287-0.305,0.622-0.158,0.911-0.161c1.817-0.016,3.638,0.023,5.455-0.025c0.685-0.018,1.091,0.223,1.509,0.75
		C370.912,34.436,373.516,37.656,376.192,40.994"/>
	<path fill="#FFFFFF" d="M341.77,30.451c3.699,0,7.398,0.022,11.098-0.019c0.73-0.009,0.9,0.189,0.884,0.898
		c-0.044,1.906-0.009,1.907-1.942,1.907c-4.496,0-8.99,0.016-13.486-0.015c-0.696-0.007-0.913,0.137-0.9,0.874
		c0.049,2.933,0.041,5.865,0.004,8.797c-0.013,0.721,0.143,0.957,0.919,0.948c4.783-0.038,9.565-0.001,14.351-0.037
		c0.791-0.007,1.107,0.113,1.062,1.012c-0.084,1.803-0.023,1.807-1.857,1.807c-4.527,0-9.057,0.014-13.586-0.017
		c-0.691-0.005-0.945,0.128-0.891,0.872c0.121,1.647-0.18,3.32,0.178,4.955c0.709,3.245,3.387,5.424,6.699,5.454
		c2.965,0.026,5.932,0.019,8.898-0.006c0.551-0.006,0.762,0.083,0.762,0.71c0.001,2.263,0.033,2.263-2.264,2.263
		c-4.4,0-8.801,0.009-13.201-0.004c-5.285-0.014-8.891-3.619-8.895-8.877c-0.006-6.855,0.012-13.708-0.022-20.562
		c-0.004-0.811,0.212-0.989,0.999-0.981C334.307,30.476,338.039,30.451,341.77,30.451"/>
	<path fill="#FFFFFF" d="M174.168,30.284v3.538c1.817-0.032,4.214,0.022,6.03-0.03c0.7-0.02,0.903,0.14,0.896,0.875
		c-0.04,4.238-0.02,8.479-0.02,12.717c0,4.175,0.02,8.351-0.019,12.526c-0.007,0.764,0.132,1.056,0.97,1.013
		c1.527-0.075,3.061,0,4.59-0.03c0.947-0.018,2.208,0.413,2.748-0.185c0.467-0.516,0.15-1.758,0.151-2.678
		c0.004-7.812,0.014-15.618-0.015-23.427c-0.002-0.759,0.194-0.987,0.95-0.946c1.208,0.063,4.523,0.017,5.734,0.017V30.26
		C189.968,30.294,180.386,30.279,174.168,30.284"/>
	<path fill="#FFFFFF" d="M169.009,45.656c0,4.78-0.014,9.56,0.017,14.338c0.004,0.666-0.159,0.847-0.833,0.836
		c-2.326-0.045-4.654-0.035-6.98-0.007c-0.577,0.007-0.822-0.079-0.82-0.759c0.025-9.591,0.023-19.184,0.004-28.774
		c-0.001-0.591,0.155-0.75,0.745-0.741c2.391,0.035,4.782,0.039,7.172-0.003c0.642-0.013,0.709,0.233,0.706,0.77
		C169.002,36.097,169.009,40.878,169.009,45.656"/>
	<path fill="#FFFFFF" d="M401.66,36.896c-0.738,0.257-1.172,0.044-1.408-0.612c-0.074-0.205-0.213-0.39-0.33-0.578
		c-0.233-0.371-0.553-0.708-1.002-0.551c-0.427,0.147-0.123,0.605-0.197,0.914c-0.036,0.152-0.013,0.317-0.004,0.477
		c0.016,0.31-0.084,0.461-0.433,0.456c-0.358-0.004-0.515-0.113-0.513-0.491c0.014-1.21,0.014-2.418,0-3.628
		c-0.003-0.332,0.122-0.454,0.445-0.445c0.509,0.013,1.017,0.012,1.528,0.003c0.733-0.011,1.429,0.05,1.669,0.919
		c0.188,0.687-0.057,1.1-0.961,1.656C400.96,35.548,401.324,36.163,401.66,36.896 M399.188,34.408
		c0.637-0.071,1.264,0.089,1.269-0.617c0.007-0.789-0.687-0.542-1.142-0.628c-0.537-0.1-0.59,0.19-0.613,0.642
		C398.676,34.357,398.918,34.461,399.188,34.408"/>
	<path fill="#7F7F7F" d="M468.505,109.101c-0.05-10.025-0.183-21.376-0.29-31.402h-2.178c-0.163,9.798-0.33,19.592-0.504,29.861
		l-10.596-5.3l-0.053-24.562h-2.213c-0.116,6.957-0.223,16.362-0.363,23.317l-9.662-5.285l0.111-18.034h-2.834
		c-0.11,4.897-0.219,11.581-0.326,16.479l-9.549-4.975l-0.039-11.505h-2.797l-0.055,9.717c0.168,1.368-0.367,1.788-1.738,1.772
		c-6.939-0.06-15.828-0.031-22.768-0.025v3.487c2.9-0.005,10.682-0.005,10.682-0.005l4.408,3.93l-15.088,0.076v9.962l24.312,0.013
		l3.138,2.751l-27.45-0.018v9.694l84.26-0.061L468.505,109.101z M426.483,99.115l13.741-0.209l6.07,4.278l-15.318,0.053
		L426.483,99.115z M439.834,111.955l24.624,0.012l5.431,3.117l-26.738,0.179L439.834,111.955z"/>
	<path fill="#7F7F7F" d="M388.965,92.283c-4.053-5.184-13.744-6.361-19.455-0.844l-0.029-13.187h-8.476
		c-0.013,13.431-0.026,26.44-0.032,39.876h8.537v-3.768c2.061,2.121,6.742,3.803,9.328,3.905c2.139,0.087,4.57-0.889,6.464-2.06
		c4.944-3.05,7.008-7.966,7.03-13.55C392.348,98.963,391.34,95.318,388.965,92.283 M380.422,109.604
		c-3.474,2.449-8.22,1.257-10.074-2.675c-1.424-3.023-1.427-7.978,1.756-10.725c3.051-2.632,8.035-2.037,10.063,1.456
		c0,0,1.344,2.718,1.409,4.999C383.727,105.523,382.76,107.957,380.422,109.604"/>
	<path fill="#7F7F7F" d="M311.102,109.907c-1.188,0.003-1.934-0.48-1.902-1.698l0.053-29.653l-8.532,0.034
		c-0.003,11.924,0.004,25.731-0.014,37.654c-0.002,0.94,0.339,1.314,1.282,1.312c8.578-0.016,18.127-0.07,26.705-0.055v-7.537
		L311.102,109.907z"/>
	<path fill="#7F7F7F" d="M356.95,118.129l-0.046-17.603c-0.043-1.835-0.328-3.716-0.863-5.467
		c-1.618-5.296-5.604-7.032-10.369-7.642c-3.877-0.492-7.712,0.021-11.535,1.559c-1.139,0.456-1.506,1.698-1.269,2.902
		c0.218,1.133,0.534,1.761,0.712,2.634c0.324,1.558,1.076,1.64,2.039,1.253c2.795-1.123,5.525-0.771,8.301-0.831
		c0.641-0.014,1.229,0.073,1.748,0.252c2.514,0.866,1.643,4.609-1.014,4.425c-0.02-0.001-0.037-0.001-0.057-0.004
		c-1.875-0.114-3.783-0.305-5.646-0.036c-2.412,0.347-4.641,1.154-6.557,2.673c-1.963,1.56-2.623,3.771-3.001,6.077
		c0,0-1.325,7.188,7.149,9.44c3.225,0.856,6.148,0.457,8.997-1.121c0.085-0.047,3.242-1.963,3.242-1.963l0.003,3.451H356.95z
		 M348.144,109.34c-1.288,2.736-7.058,3.824-9.245,1.749c-1.844-1.746-1.11-5.164,1.327-5.862c0,0,3.478-0.96,5.706-0.311
		C348.873,105.777,349.451,106.564,348.144,109.34"/>
</g>
</svg>
