<?xml version="1.0" encoding="utf-8"?>
<!-- Generator: Adobe Illustrator 16.0.0, SVG Export Plug-In . SVG Version: 6.00 Build 0)  -->
<!DOCTYPE svg PUBLIC "-//W3C//DTD SVG 1.1//EN" "http://www.w3.org/Graphics/SVG/1.1/DTD/svg11.dtd">
<svg version="1.1" id="Capa_1" xmlns="http://www.w3.org/2000/svg" xmlns:xlink="http://www.w3.org/1999/xlink" x="0px" y="0px"
	 width="292.148px" height="71.428px" viewBox="158.248 38.692 292.148 71.428"
	 enable-background="new 158.248 38.692 292.148 71.428" xml:space="preserve">
<g>
	<path fill="#FFFFFF" d="M281.519,49.304c0.021-5.28-3.246-9.542-8.414-10.611h-11.947c-4.014,0.79-7.4,4.273-8.125,8.322
		c-0.466,2.599-0.293,5.246-0.141,7.861c0.28,4.8,4.627,8.961,9.449,9.072c3.189,0.072,6.381,0.066,9.57,0.002
		c4.62-0.094,8.785-3.816,9.467-8.381C281.69,53.488,281.509,51.392,281.519,49.304 M274.024,56.741
		c-0.368,1.043-0.873,2.002-1.639,2.811c-0.901,0.956-1.994,1.464-3.326,1.447c-1.301-0.016-2.602-0.018-3.902,0
		c-1.423,0.021-2.57-0.55-3.494-1.593c-1.096-1.238-1.768-2.702-1.912-4.331c-0.236-2.688-0.387-5.389,0.176-8.062
		c0.234-1.107,0.717-2.121,1.414-3.017c0.992-1.274,2.234-2.036,3.928-1.964c1.247,0.053,2.5,0.046,3.748,0.002
		c1.533-0.051,2.707,0.598,3.644,1.745c1.386,1.695,1.86,3.701,1.911,5.834c0.015,0.637,0.002,1.274,0.002,2.171
		C274.59,53.284,274.624,55.044,274.024,56.741"/>
	<path fill="#FFFFFF" d="M158.249,39.012c1.862,0.009,3.723,0.044,5.583,0.007c0.668-0.012,0.893,0.124,0.887,0.851
		c-0.035,5.483-0.019,10.966-0.019,16.463c0.317,0.022,0.368-0.251,0.49-0.411c3.34-4.346,6.675-8.695,10.01-13.045
		c0.249-0.324,0.511-0.635,0.756-0.963c1.404-1.87,2.955-2.609,5.61-2.634c1.076-0.01,2.171,0.027,3.378,0.027
		c-0.296,0.414-0.521,0.74-0.756,1.06c-5.345,7.329-10.693,14.658-16.034,21.993c-0.457,0.627-1.006,1.13-1.799,1.152
		c-2.702,0.082-5.405,0.105-8.108-0.007L158.249,39.012L158.249,39.012z"/>
	<path fill="#FFFFFF" d="M384.125,43.91c-0.445-0.242-0.364,0.23-0.454,0.376c-0.688,1.141-1.686,1.757-3.01,1.76
		c-1.293,0.003-2.311-0.567-2.969-1.692c-0.963-1.649-0.387-3.791,1.248-4.706c1.742-0.974,3.829-0.343,4.775,1.416
		c0.074,0.138-0.017,0.579,0.41,0.397L384.125,43.91L384.125,43.91z M383.402,42.632c0.001-1.566-1.196-2.757-2.761-2.75
		c-1.547,0.008-2.778,1.254-2.75,2.785c0.029,1.493,1.26,2.721,2.744,2.736C382.16,45.419,383.402,44.175,383.402,42.632"/>
	<path fill="#FFFFFF" d="M243.146,52.231c1.453,1.91,2.844,3.758,4.261,5.588c2.095,2.699,4.235,5.363,6.305,8.082
		c1.43,1.879,3.245,2.645,5.612,2.643c38.229-0.035,76.457-0.023,114.684-0.043c0.738,0,0.872,0.229,0.857,0.895
		c-0.04,1.851-0.012,1.852-1.881,1.852c-40.041,0-80.08-0.01-120.12,0.025c-2.298,0.001-3.979-0.896-5.282-2.666
		c-3.627-4.927-7.305-9.816-10.823-14.824c-0.204-0.291-0.429-0.57-0.661-0.842c-0.537-0.631-1.163-0.986-2.058-0.934
		c-1.321,0.072-2.653,0.047-3.979,0.005c-0.58-0.017-0.771,0.114-0.766,0.738c0.034,3.368-0.001,6.734,0.031,10.101
		c0.006,0.63-0.143,0.818-0.79,0.801c-1.733-0.047-3.47-0.034-5.204-0.004c-0.508,0.01-0.636-0.144-0.635-0.641
		c0.015-7.729,0.016-15.459-0.004-23.188c-0.001-0.576,0.209-0.65,0.705-0.647c6.432,0.034,12.863-0.014,19.293,0.111
		c4.021,0.078,6.723,3.226,6.178,7.223c-0.422,3.107-2.262,5.045-5.359,5.648C243.422,52.171,243.333,52.191,243.146,52.231
		 M234.069,50.34c1.326,0,2.654,0.015,3.98-0.005c2.466-0.036,4.227-1.855,4.254-4.371c0.028-2.512-1.693-4.423-4.15-4.474
		c-2.781-0.057-5.562-0.008-8.344-0.027c-0.419-0.003-0.509,0.145-0.506,0.53c0.014,2.602,0.017,5.204-0.004,7.806
		c-0.002,0.438,0.125,0.562,0.559,0.552C231.262,50.325,232.665,50.343,234.069,50.34"/>
	<path fill="#FFFFFF" d="M302.766,53.88c0.237-0.333,0.399-0.557,0.558-0.783c2.865-4.183,5.75-8.351,8.582-12.555
		c0.689-1.022,1.654-1.313,2.754-1.342c1.631-0.043,3.267,0.01,4.896-0.025c0.676-0.015,0.498,0.427,0.498,0.767
		c0.008,6.429,0.006,12.856,0.006,19.284c0,1.25-0.023,2.5,0.01,3.75c0.014,0.482-0.145,0.607-0.609,0.598
		c-1.404-0.027-2.809-0.039-4.211,0.005c-0.576,0.019-0.65-0.199-0.648-0.699c0.018-4.976,0.01-9.95,0.01-14.925v-0.936
		c-1.738,2.354-3.35,4.536-4.961,6.719c-2.135,2.891-4.283,5.771-6.396,8.678c-0.365,0.503-0.525,0.557-0.922,0.019
		c-3.644-4.945-7.315-9.87-10.98-14.799c-0.113-0.151-0.176-0.364-0.469-0.433v0.754c0,4.951-0.016,9.896,0.016,14.848
		c0.004,0.656-0.176,0.801-0.8,0.777c-1.325-0.051-2.653-0.033-3.98-0.008c-0.461,0.01-0.657-0.062-0.655-0.605
		c0.02-7.729,0.014-15.459,0.02-23.188c0-0.243-0.148-0.61,0.339-0.595c1.911,0.056,3.825-0.1,5.735,0.094
		c0.975,0.099,1.609,0.619,2.145,1.405C296.688,45.061,299.698,49.421,302.766,53.88"/>
	<path fill="#FFFFFF" d="M361.819,47.677c2.126-2.647,4.209-5.225,6.27-7.82c0.344-0.431,0.685-0.649,1.271-0.631
		c1.65,0.048,3.309,0.017,4.972,0.017c0.075,0.312-0.169,0.43-0.298,0.589c-2.926,3.636-5.848,7.276-8.803,10.887
		c-0.359,0.44-0.307,0.66,0.021,1.061c3.07,3.747,6.117,7.512,9.173,11.273c0.094,0.114,0.181,0.234,0.317,0.412
		c-0.408,0.163-0.783,0.09-1.145,0.093c-1.354,0.009-2.708-0.015-4.059,0.013c-0.451,0.011-0.742-0.135-1.025-0.49
		c-2.049-2.574-4.129-5.121-6.171-7.702c-0.374-0.473-0.544-0.538-0.952-0.024c-2.067,2.592-4.184,5.146-6.26,7.73
		c-0.285,0.355-0.574,0.494-1.026,0.488c-1.71-0.023-3.418-0.01-5.175-0.01c0.076-0.357,0.328-0.549,0.51-0.771
		c2.97-3.665,5.942-7.331,8.932-10.978c0.352-0.422,0.393-0.679,0.018-1.137c-3.066-3.75-6.1-7.525-9.15-11.301
		c0.229-0.244,0.498-0.126,0.729-0.129c1.454-0.013,2.91,0.018,4.364-0.02c0.548-0.015,0.872,0.179,1.207,0.6
		C357.595,42.43,359.677,45.006,361.819,47.677"/>
	<path fill="#FFFFFF" d="M334.28,39.242c2.959,0,5.919,0.018,8.879-0.015c0.584-0.007,0.72,0.151,0.707,0.718
		c-0.035,1.524-0.007,1.525-1.554,1.525c-3.597,0-7.191,0.013-10.788-0.012c-0.557-0.006-0.73,0.109-0.721,0.699
		c0.039,2.346,0.033,4.692,0.004,7.038c-0.011,0.576,0.114,0.766,0.734,0.758c3.826-0.031,7.652-0.001,11.481-0.029
		c0.633-0.006,0.886,0.09,0.849,0.809c-0.066,1.443-0.018,1.446-1.484,1.446c-3.622,0-7.246,0.012-10.869-0.013
		c-0.553-0.006-0.756,0.102-0.713,0.696c0.097,1.317-0.145,2.656,0.143,3.964c0.567,2.598,2.709,4.34,5.359,4.364
		c2.371,0.021,4.746,0.015,7.118-0.005c0.44-0.006,0.609,0.066,0.609,0.567c0.001,1.812,0.026,1.812-1.812,1.812
		c-3.52,0-7.04,0.006-10.561-0.004c-4.229-0.012-7.112-2.895-7.115-7.102c-0.006-5.484,0.01-10.967-0.018-16.45
		c-0.004-0.649,0.169-0.792,0.799-0.785C328.31,39.262,331.296,39.242,334.28,39.242"/>
	<path fill="#FFFFFF" d="M200.2,39.108v2.831c1.453-0.026,3.371,0.017,4.824-0.024c0.559-0.016,0.722,0.112,0.716,0.7
		c-0.032,3.39-0.016,6.783-0.016,10.173c0,3.341,0.016,6.682-0.015,10.021c-0.006,0.611,0.105,0.844,0.775,0.811
		c1.221-0.061,2.448,0,3.672-0.023c0.757-0.016,1.766,0.329,2.197-0.148c0.375-0.413,0.121-1.406,0.122-2.143
		c0.003-6.25,0.011-12.494-0.013-18.742c-0.002-0.607,0.154-0.789,0.76-0.756c0.967,0.05,3.619,0.013,4.588,0.013v-2.731
		C212.839,39.116,205.175,39.104,200.2,39.108"/>
	<path fill="#FFFFFF" d="M196.072,51.406c0,3.824-0.011,7.647,0.014,11.47c0.003,0.533-0.127,0.678-0.667,0.67
		c-1.859-0.037-3.723-0.029-5.584-0.006c-0.461,0.006-0.656-0.063-0.655-0.607c0.021-7.672,0.019-15.348,0.003-23.02
		c0-0.473,0.124-0.6,0.596-0.593c1.914,0.028,3.826,0.031,5.738-0.002c0.514-0.01,0.566,0.187,0.564,0.616
		C196.067,43.759,196.072,47.583,196.072,51.406"/>
	<path fill="#FFFFFF" d="M382.192,44.398c-0.59,0.206-0.938,0.035-1.126-0.489c-0.06-0.164-0.171-0.312-0.265-0.462
		c-0.186-0.297-0.441-0.566-0.801-0.441c-0.342,0.117-0.099,0.484-0.158,0.731c-0.027,0.122-0.01,0.253-0.003,0.382
		c0.013,0.248-0.067,0.369-0.347,0.365c-0.286-0.003-0.411-0.09-0.41-0.393c0.012-0.968,0.012-1.935,0-2.902
		c-0.002-0.266,0.098-0.363,0.355-0.356c0.408,0.011,0.814,0.01,1.223,0.002c0.588-0.009,1.144,0.04,1.336,0.735
		c0.15,0.549-0.045,0.88-0.77,1.325C381.633,43.319,381.925,43.812,382.192,44.398 M380.215,42.408
		c0.511-0.057,1.012,0.071,1.016-0.494c0.005-0.631-0.55-0.434-0.913-0.502c-0.43-0.08-0.473,0.152-0.49,0.514
		C379.806,42.367,379.999,42.45,380.215,42.408"/>
	<path fill="#7F7F7F" d="M435.669,102.161c-0.04-8.02-0.146-17.1-0.232-25.121h-1.742c-0.131,7.839-0.264,15.674-0.402,23.889
		l-8.479-4.24l-0.041-19.648h-1.771c-0.092,5.565-0.178,13.089-0.29,18.652l-7.729-4.228l0.089-14.427h-2.267
		c-0.089,3.918-0.176,9.264-0.262,13.184l-7.639-3.98l-0.031-9.205h-2.238l-0.043,7.775c0.135,1.094-0.294,1.43-1.391,1.418
		c-5.552-0.049-12.662-0.025-18.215-0.021v2.789c2.32-0.002,8.546-0.002,8.546-0.002l3.526,3.143l-12.07,0.062v7.969l19.449,0.011
		l2.51,2.201l-21.959-0.016v7.756l67.408-0.049L435.669,102.161z M402.052,94.173l10.992-0.166l4.855,3.422l-12.254,0.043
		L402.052,94.173z M412.731,104.445l19.699,0.009l4.346,2.494l-21.391,0.143L412.731,104.445z"/>
	<path fill="#7F7F7F" d="M372.036,88.708c-3.242-4.148-10.994-5.09-15.563-0.676l-0.022-10.549h-6.781
		c-0.01,10.744-0.021,21.152-0.025,31.9h6.829v-3.014c1.649,1.696,5.394,3.041,7.462,3.123c1.711,0.07,3.656-0.711,5.172-1.648
		c3.955-2.439,5.605-6.372,5.624-10.84C374.743,94.052,373.937,91.136,372.036,88.708 M365.202,102.565
		c-2.779,1.958-6.576,1.004-8.059-2.141c-1.14-2.418-1.143-6.383,1.404-8.58c2.441-2.105,6.428-1.63,8.051,1.164
		c0,0,1.074,2.175,1.127,4C367.847,99.3,367.073,101.247,365.202,102.565"/>
	<path fill="#7F7F7F" d="M309.746,102.808c-0.95,0.002-1.547-0.385-1.521-1.359l0.041-23.723l-6.824,0.027
		c-0.004,9.54,0.003,20.586-0.012,30.123c-0.002,0.753,0.271,1.051,1.025,1.05c6.863-0.013,14.502-0.056,21.364-0.044v-6.029
		L309.746,102.808z"/>
	<path fill="#7F7F7F" d="M346.425,109.384l-0.037-14.082c-0.033-1.469-0.262-2.973-0.689-4.373
		c-1.295-4.237-4.483-5.627-8.296-6.113c-3.102-0.395-6.169,0.017-9.228,1.246c-0.912,0.365-1.205,1.359-1.016,2.322
		c0.174,0.906,0.428,1.409,0.57,2.107c0.259,1.246,0.86,1.311,1.631,1.002c2.236-0.898,4.42-0.617,6.641-0.664
		c0.512-0.012,0.983,0.058,1.398,0.201c2.011,0.692,1.314,3.688-0.811,3.539c-0.018,0-0.03,0-0.047-0.003
		c-1.5-0.091-3.025-0.243-4.516-0.028c-1.93,0.277-3.714,0.924-5.246,2.139c-1.57,1.248-2.098,3.016-2.401,4.861
		c0,0-1.06,5.75,5.72,7.552c2.58,0.685,4.918,0.366,7.197-0.897c0.068-0.037,2.594-1.57,2.594-1.57l0.002,2.762H346.425
		L346.425,109.384z M339.38,102.353c-1.029,2.189-5.646,3.061-7.396,1.4c-1.476-1.397-0.888-4.132,1.062-4.689
		c0,0,2.782-0.77,4.564-0.25C339.964,99.503,340.426,100.132,339.38,102.353"/>
</g>
</svg>
